<svg width="55" height="55" viewBox="0 0 55 55" fill="none" xmlns="http://www.w3.org/2000/svg">
<g clip-path="url(#clip0_10_438)">
<g clip-path="url(#clip1_10_438)">
<mask id="mask0_10_438" style="mask-type:luminance" maskUnits="userSpaceOnUse" x="0" y="1" width="54" height="54">
<path d="M0.824219 1.5061H53.8424V54.5243H0.824219V1.5061Z" fill="white"/>
</mask>
<g mask="url(#mask0_10_438)">
<path fill-rule="evenodd" clip-rule="evenodd" d="M30.6158 28.8638L30.5333 29.2192L37.6535 33.3301C37.857 33.4531 38.0047 33.6504 38.0653 33.8804C38.126 34.1103 38.0948 34.3549 37.9785 34.5622C37.921 34.6662 37.8432 34.7575 37.7497 34.8308C37.6563 34.9042 37.5491 34.958 37.4344 34.9891C37.3198 35.0202 37.2001 35.028 37.0824 35.0121C36.9647 34.9961 36.8514 34.9566 36.7492 34.8961L29.5427 30.7361L29.2825 30.9384C28.8596 31.2655 28.3708 31.4969 27.8498 31.6168C27.3288 31.7366 26.788 31.7419 26.2647 31.6323C25.7415 31.5228 25.2482 31.301 24.819 30.9822C24.3898 30.6635 24.0349 30.2554 23.7788 29.7861C23.5227 29.3168 23.3714 28.7975 23.3356 28.2641C23.2997 27.7307 23.38 27.1959 23.5709 26.6965C23.7619 26.1972 24.059 25.7452 24.4416 25.3718C24.8242 24.9985 25.2833 24.7126 25.7872 24.534L26.1142 24.4181V11.2843C26.1142 10.7816 26.5393 10.3702 27.0184 10.3702C27.5093 10.3702 27.9227 10.7924 27.9227 11.2833V24.4171L28.2496 24.532C29.1083 24.8356 29.8246 25.4455 30.2612 26.2447C30.6979 27.0439 30.8242 27.9772 30.6158 28.8638ZM53.0366 28.0184C53.0366 42.3873 41.3883 54.0366 27.0184 54.0366C12.6485 54.0366 1.00024 42.3873 1.00024 28.0184C1.00024 13.6485 12.6485 2.00024 27.0184 2.00024C41.3883 2.00024 53.0366 13.6485 53.0366 28.0184ZM27.0184 52.2281C40.3888 52.2281 51.2281 41.3888 51.2281 28.0184C51.2281 14.647 40.3888 3.80875 27.0184 3.80875C13.648 3.80875 2.80875 14.648 2.80875 28.0184C2.80875 41.3888 13.648 52.2281 27.0184 52.2281Z" fill="#8835C3"/>
</g>
</g>
</g>
<defs>
<clipPath id="clip0_10_438">
<rect width="54" height="54" fill="white" transform="translate(0.660156 0.549805)"/>
</clipPath>
<clipPath id="clip1_10_438">
<rect width="54" height="54" fill="white" transform="translate(0.660156 0.549805)"/>
</clipPath>
</defs>
</svg>
