<svg width="71" height="69" viewBox="0 0 71 69" fill="none" xmlns="http://www.w3.org/2000/svg">
<mask id="mask0_10_167" style="mask-type:alpha" maskUnits="userSpaceOnUse" x="0" y="0" width="71" height="69">
<path d="M5.10167 0.500977C3.75071 0.507732 2.457 1.0474 1.50171 2.00269C0.54642 2.95797 0.00675495 4.25168 0 5.60265V63.398C0 66.1995 2.30668 68.4997 5.10167 68.4997H45.6452C43.4062 66.8927 41.5788 64.7791 40.3122 62.3314L40.3058 62.3186C38.8375 59.5241 38.1409 56.3887 38.2877 53.2355C38.4346 50.0822 39.4195 47.0251 41.1411 44.3792C42.7251 41.928 44.8859 39.9025 47.4342 38.4799C49.9826 37.0573 52.8407 36.2811 55.7586 36.2191H55.7714C56.4525 36.2062 57.1271 36.232 57.8018 36.2962V20.9012H42.5096C41.1576 20.8962 39.8622 20.3572 38.9055 19.4018C37.9489 18.4463 37.4083 17.1516 37.4015 15.7996V0.500977H5.10167ZM40.8005 1.4969V15.7996C40.8005 16.7634 41.5458 17.5023 42.5032 17.5023H56.8059L40.8005 1.4969ZM14.4569 17.4958H29.749C30.2006 17.4958 30.6337 17.6752 30.953 17.9945C31.2723 18.3139 31.4517 18.747 31.4517 19.1985C31.4517 19.649 31.2732 20.0811 30.9553 20.4003C30.6374 20.7194 30.2059 20.8995 29.7555 20.9012H14.4505C14 20.8995 13.5685 20.7194 13.2506 20.4003C12.9327 20.0811 12.7542 19.649 12.7542 19.1985C12.7559 18.7492 12.9351 18.3187 13.2529 18.001C13.5706 17.6832 14.0011 17.504 14.4505 17.5023L14.4569 17.4958ZM14.4569 27.6992H42.5032C42.9548 27.6992 43.3879 27.8786 43.7072 28.1979C44.0265 28.5172 44.2059 28.9503 44.2059 29.4019C44.2042 29.8523 44.0241 30.2838 43.7049 30.6017C43.3858 30.9196 42.9537 31.0982 42.5032 31.0982H14.4505C14.0011 31.0965 13.5706 30.9172 13.2529 30.5995C12.9351 30.2817 12.7559 29.8512 12.7542 29.4019C12.7542 28.9514 12.9327 28.5193 13.2506 28.2002C13.5685 27.881 14.0064 27.7009 14.4569 27.6992ZM14.4569 37.9025H35.6988C36.1482 37.9042 36.5787 38.0835 36.8964 38.4012C37.2142 38.719 37.3934 39.1494 37.3951 39.5988C37.3951 40.0493 37.2166 40.4814 36.8987 40.8005C36.5808 41.1197 36.1493 41.2998 35.6988 41.3015H14.4505C14 41.2998 13.5685 41.1197 13.2506 40.8005C12.9327 40.4814 12.7542 40.0493 12.7542 39.5988C12.7559 39.1494 12.9351 38.719 13.2529 38.4012C13.5706 38.0835 14.0075 37.9042 14.4569 37.9025ZM56.1055 39.5988C52.2729 39.6039 48.5987 41.1287 45.8886 43.8387C43.1785 46.5488 41.6538 50.223 41.6487 54.0557C41.6571 57.8861 43.1834 61.557 45.8931 64.2643C48.6029 66.9716 52.2751 68.4946 56.1055 68.4997C59.9359 68.4929 63.6075 66.9683 66.316 64.2598C69.0246 61.5512 70.5492 57.8797 70.556 54.0492C70.5492 50.2177 69.0237 46.5452 66.3138 43.8365C63.6039 41.1278 59.9306 39.6039 56.0991 39.5988H56.1055ZM56.1055 46.6152C56.5549 46.6169 56.9854 46.7961 57.3031 47.1139C57.6209 47.4316 57.8001 47.8621 57.8018 48.3115C57.8018 48.7619 57.6233 49.1941 57.3054 49.5132C56.9874 49.8323 56.556 50.0125 56.1055 50.0142C55.8819 50.0142 55.6605 49.9701 55.4539 49.8846C55.2474 49.799 55.0596 49.6736 54.9015 49.5155C54.7434 49.3574 54.618 49.1696 54.5324 48.9631C54.4469 48.7565 54.4028 48.5351 54.4028 48.3115C54.4045 47.861 54.5847 47.4296 54.9038 47.1116C55.2229 46.7937 55.6551 46.6152 56.1055 46.6152ZM14.4505 48.0994H32.3063C32.7568 48.1011 33.1882 48.2813 33.5061 48.6004C33.8241 48.9195 34.0026 49.3517 34.0026 49.8021C34.0009 50.2515 33.8216 50.682 33.5039 50.9997C33.1861 51.3175 32.7557 51.4967 32.3063 51.4984H14.4505C14.0011 51.4967 13.5706 51.3175 13.2529 50.9997C12.9351 50.682 12.7559 50.2515 12.7542 49.8021C12.7542 49.3517 12.9327 48.9195 13.2506 48.6004C13.5685 48.2813 14 48.1011 14.4505 48.0994ZM56.1055 51.2864C56.556 51.2881 56.9874 51.4682 57.3054 51.7874C57.6233 52.1065 57.8018 52.5386 57.8018 52.9891V59.787C57.8018 60.2375 57.6233 60.6696 57.3054 60.9887C56.9874 61.3079 56.556 61.488 56.1055 61.4897C55.6539 61.4897 55.2209 61.3103 54.9015 60.991C54.5822 60.6717 54.4028 60.2386 54.4028 59.787V52.9891C54.4028 52.5375 54.5822 52.1044 54.9015 51.7851C55.2209 51.4658 55.6539 51.2864 56.1055 51.2864Z" fill="#8835C3"/>
</mask>
<g mask="url(#mask0_10_167)">
<rect x="-3" y="-4" width="85" height="76" fill="#8835C3"/>
<circle cx="57" cy="54" r="16" fill="#FF4723"/>
</g>
</svg>
