<svg width="85" height="85" viewBox="0 0 85 85" fill="none" xmlns="http://www.w3.org/2000/svg">
<circle cx="42.5" cy="42.5" r="42.5" fill="#8835C3"/>
<path fill-rule="evenodd" clip-rule="evenodd" d="M26.0545 51.422C26.1198 51.8645 25.8139 52.2753 25.3734 52.3401C24.9288 52.4051 24.5209 52.0987 24.4556 51.6561C24.3903 51.2143 24.6962 50.8028 25.1368 50.738C25.5814 50.6739 25.9934 50.9799 26.0545 51.422ZM42.7378 29.6206C44.4164 29.6206 45.7771 30.9813 45.7771 32.6599C45.7771 34.3385 44.4164 35.6992 42.7378 35.6992C41.0592 35.6992 39.6985 34.3385 39.6985 32.6599C39.6985 30.9813 41.0592 29.6206 42.7378 29.6206ZM48.7143 41.605C48.3916 38.5894 45.839 36.2406 42.7377 36.2406C39.6363 36.2406 37.0839 38.5894 36.7611 41.605V42.82C36.7611 43.7048 37.4828 44.4264 38.3676 44.4264H47.1078C47.9926 44.4264 48.7143 43.7048 48.7143 42.82V41.605ZM33.6544 31.9529C34.9102 31.9529 35.9282 32.9709 35.9282 34.2267C35.9282 35.4826 34.9102 36.5006 33.6544 36.5006C32.3986 36.5006 31.3806 35.4826 31.3806 34.2267C31.3806 32.9709 32.3986 31.9529 33.6544 31.9529ZM33.6544 37.108C34.7729 37.108 35.7958 37.5164 36.5826 38.1921C35.9347 39.1715 35.5317 40.2924 35.4077 41.4602L35.3999 41.5325V41.6053H30.3396C30.0024 41.6053 29.7123 41.4587 29.5122 41.1873C29.3121 40.9159 29.2579 40.5954 29.3577 40.2733C29.9253 38.4398 31.6344 37.108 33.6544 37.108ZM51.8211 37.108C53.8411 37.108 55.5502 38.4398 56.1179 40.2733C56.2177 40.5954 56.1634 40.9159 55.9634 41.1873C55.7633 41.4587 55.4733 41.6053 55.136 41.6053H50.0757V41.5324L50.0679 41.4601C49.9439 40.2923 49.5409 39.1715 48.8929 38.1921C49.6797 37.5164 50.7026 37.108 51.8211 37.108ZM51.8211 31.9529C53.0769 31.9529 54.0949 32.9709 54.0949 34.2267C54.0949 35.4826 53.0769 36.5006 51.8211 36.5006C50.5653 36.5006 49.5473 35.4826 49.5473 34.2267C49.5473 32.9709 50.5653 31.9529 51.8211 31.9529ZM33.313 22.9575L34.1861 25.2568C34.1982 25.2901 34.2201 25.3191 34.2488 25.3399C34.2775 25.3608 34.3117 25.3726 34.3472 25.3739L36.8038 25.4936C36.8407 25.495 36.8763 25.5078 36.9057 25.5303C36.9351 25.5527 36.9568 25.5837 36.9679 25.619C36.9797 25.6541 36.9804 25.6919 36.9698 25.7274C36.9592 25.7628 36.9379 25.7941 36.9088 25.817L34.9918 27.3578C34.9638 27.3797 34.9431 27.4094 34.9321 27.4432C34.9212 27.4769 34.9205 27.5132 34.9303 27.5473L35.5755 29.9207C35.5958 29.995 35.5692 30.0702 35.5069 30.1155C35.4447 30.1608 35.3649 30.1627 35.3005 30.1205L33.2426 28.7735C33.2131 28.7537 33.1785 28.7431 33.143 28.7431C33.1075 28.7431 33.0728 28.7537 33.0434 28.7735L30.9856 30.1206C30.9212 30.1628 30.8414 30.1609 30.7791 30.1156C30.7168 30.0703 30.6903 29.9951 30.7105 29.9208L31.3558 27.5473C31.3655 27.5132 31.3649 27.4769 31.3539 27.4432C31.343 27.4095 31.3222 27.3797 31.2943 27.3578L29.3772 25.817C29.3481 25.7941 29.3268 25.7628 29.3163 25.7274C29.3057 25.6919 29.3064 25.6541 29.3182 25.619C29.3292 25.5837 29.3509 25.5527 29.3803 25.5302C29.4097 25.5078 29.4453 25.495 29.4823 25.4936L31.939 25.3739C31.9744 25.3726 32.0087 25.3608 32.0374 25.3399C32.0661 25.3191 32.0879 25.2901 32.1001 25.2568L32.9731 22.9575C32.9858 22.9228 33.009 22.8928 33.0395 22.8718C33.0699 22.8508 33.1061 22.8397 33.1431 22.8402C33.22 22.8402 33.2856 22.8854 33.313 22.9575ZM52.5025 22.9575L53.3755 25.2568C53.3877 25.2901 53.4095 25.3191 53.4382 25.3399C53.4669 25.3608 53.5012 25.3726 53.5366 25.3739L55.9932 25.4936C56.0302 25.495 56.0658 25.5078 56.0952 25.5303C56.1246 25.5527 56.1463 25.5837 56.1573 25.619C56.1691 25.6541 56.1698 25.6919 56.1592 25.7274C56.1486 25.7628 56.1274 25.7941 56.0983 25.817L54.1812 27.3578C54.1533 27.3797 54.1325 27.4094 54.1215 27.4432C54.1106 27.4769 54.1099 27.5132 54.1197 27.5473L54.765 29.9207C54.7852 29.995 54.7587 30.0702 54.6964 30.1155C54.6341 30.1608 54.5543 30.1627 54.4899 30.1205L52.432 28.7734C52.4026 28.7536 52.3679 28.743 52.3324 28.743C52.2969 28.743 52.2623 28.7536 52.2328 28.7734L50.175 30.1205C50.1443 30.1411 50.108 30.1517 50.071 30.1508C50.034 30.1499 49.9982 30.1376 49.9686 30.1155C49.9384 30.0941 49.9156 30.0639 49.9033 30.029C49.891 29.9941 49.8899 29.9563 49.9 29.9207L50.5452 27.5472C50.5549 27.5131 50.5542 27.4769 50.5433 27.4431C50.5323 27.4094 50.5115 27.3797 50.4836 27.3577L48.5666 25.8169C48.5375 25.7941 48.5162 25.7628 48.5056 25.7273C48.495 25.6918 48.4957 25.654 48.5075 25.6189C48.5186 25.5836 48.5403 25.5526 48.5697 25.5302C48.5991 25.5077 48.6347 25.4949 48.6716 25.4935L51.1283 25.3738C51.1638 25.3725 51.198 25.3607 51.2267 25.3399C51.2554 25.319 51.2773 25.2901 51.2894 25.2567L52.1625 22.9574C52.1752 22.9227 52.1984 22.8927 52.2288 22.8717C52.2593 22.8507 52.2955 22.8397 52.3325 22.8401C52.3695 22.8397 52.4057 22.8508 52.4361 22.8718C52.4665 22.8928 52.4897 22.9228 52.5025 22.9575ZM42.9078 21.1174L43.7808 23.4168C43.793 23.4501 43.8148 23.479 43.8435 23.4999C43.8722 23.5207 43.9065 23.5326 43.942 23.5338L46.3985 23.6535C46.4355 23.6549 46.4711 23.6677 46.5005 23.6902C46.5299 23.7127 46.5516 23.7437 46.5626 23.779C46.5865 23.8522 46.5637 23.9287 46.5036 23.9769L44.5865 25.5178C44.5586 25.5397 44.5378 25.5694 44.5269 25.6031C44.5159 25.6369 44.5153 25.6731 44.525 25.7072L45.1703 28.0806C45.1904 28.155 45.164 28.2302 45.1017 28.2754C45.0394 28.3207 44.9596 28.3227 44.8952 28.2805L42.8373 26.9334C42.8079 26.9136 42.7732 26.903 42.7377 26.903C42.7023 26.903 42.6676 26.9136 42.6382 26.9334L40.5804 28.2805C40.5497 28.3011 40.5133 28.3117 40.4763 28.3108C40.4394 28.3099 40.4036 28.2975 40.3739 28.2754C40.3437 28.254 40.3209 28.2238 40.3086 28.1889C40.2964 28.154 40.2952 28.1162 40.3053 28.0806L40.9506 25.7072C40.9603 25.673 40.9596 25.6368 40.9487 25.6031C40.9377 25.5693 40.917 25.5396 40.8891 25.5177L38.972 23.9769C38.9429 23.954 38.9216 23.9227 38.911 23.8872C38.9004 23.8518 38.9011 23.8139 38.9129 23.7789C38.924 23.7436 38.9457 23.7125 38.9751 23.6901C39.0045 23.6676 39.0401 23.6548 39.0771 23.6535L41.5337 23.5337C41.5692 23.5325 41.6034 23.5206 41.6321 23.4998C41.6608 23.4789 41.6827 23.45 41.6949 23.4167L42.5679 21.1173C42.5806 21.0826 42.6038 21.0527 42.6342 21.0317C42.6647 21.0106 42.7009 20.9996 42.7379 21C42.7749 20.9996 42.811 21.0107 42.8415 21.0317C42.8719 21.0528 42.8951 21.0827 42.9078 21.1174ZM28.6625 51.0949L33.0203 58.7847L34.66 57.8384C34.7388 57.7928 34.8259 57.7632 34.9162 57.7514C35.0065 57.7396 35.0983 57.7457 35.1862 57.7695L45.4839 60.0374C46.8462 60.4016 48.127 60.2218 49.2976 59.5023L61.8024 51.7306C62.4836 51.313 62.6916 50.0868 62.2225 49.3017C61.5414 48.1645 59.7386 48.2987 57.3973 49.6614L51.4758 53.1103C50.244 53.8298 48.9142 54.0627 47.4173 53.823C47.1474 53.7797 46.8782 53.7323 46.6097 53.681C46.5525 53.6769 41.5723 52.3823 41.0013 52.2284C40.6301 52.1297 40.4098 51.7504 40.5117 51.3821C40.6096 51.0125 40.9889 50.7939 41.3561 50.8927C41.9393 51.0489 45.4716 52.0502 46.7973 52.308C47.4744 52.3512 48.2616 52.1628 48.5308 51.1659C48.7511 50.3486 48.2697 49.5185 47.4091 49.2203C44.9903 48.7773 42.6531 47.9334 40.7768 47.2539C40.1202 47.0168 39.5532 46.8121 39.0637 46.653C37.5219 46.153 36.0575 46.8092 34.7074 47.5928L28.6625 51.0949ZM32.8622 61.3259L26.1973 49.549C26.1321 49.4339 26.026 49.3515 25.8954 49.3152C25.8515 49.3034 25.8063 49.2973 25.7608 49.2972C25.6765 49.297 25.5935 49.3188 25.5202 49.3605L23.2524 50.6433C23.0117 50.7792 22.9301 51.0838 23.0647 51.3224L29.7296 63.0993C29.8642 63.3388 30.1701 63.4228 30.4066 63.2878L32.6745 62.0046C32.7887 61.9397 32.8703 61.8325 32.907 61.704C32.9252 61.6412 32.9306 61.5753 32.9229 61.5104C32.9152 61.4455 32.8946 61.3827 32.8622 61.3259Z" fill="white"/>
</svg>
