<svg width="85" height="85" viewBox="0 0 85 85" fill="none" xmlns="http://www.w3.org/2000/svg">
<circle cx="42.5" cy="42.5" r="42.5" fill="#8835C3"/>
<path d="M48.6073 32.635H56.1259L59.8179 44.8166C53.8376 51.5564 45.9441 57.5271 42.8193 59.7769C42.3578 60.1134 41.7329 60.0653 41.3291 59.6615C41.108 59.4404 40.9926 59.1519 40.9926 58.8443C40.9926 58.527 41.108 58.2386 41.3291 58.0174L43.3481 55.9984L45.6556 53.6909C45.7447 53.6019 45.8153 53.4962 45.8634 53.3799C45.9116 53.2636 45.9364 53.1389 45.9364 53.013C45.9364 52.8872 45.9116 52.7625 45.8634 52.6462C45.8153 52.5299 45.7447 52.4242 45.6556 52.3352C45.5666 52.2462 45.461 52.1756 45.3447 52.1274C45.2283 52.0793 45.1037 52.0545 44.9778 52.0545C44.8519 52.0545 44.7273 52.0793 44.611 52.1274C44.4947 52.1756 44.389 52.2462 44.3 52.3352L38.9255 57.7098C38.339 58.2866 37.3871 58.2866 36.8103 57.7098C36.2334 57.1329 36.2238 56.1907 36.791 55.6042L41.5406 50.6911C41.906 50.3066 41.8964 49.7008 41.5118 49.3259C41.4209 49.2386 41.3138 49.1701 41.1964 49.1243C41.0791 49.0785 40.9539 49.0563 40.828 49.059C40.702 49.0617 40.5779 49.0892 40.4626 49.1399C40.3473 49.1907 40.2432 49.2637 40.1561 49.3547L39.3966 50.1335L35.4065 54.2677L34.3393 55.3638C33.7528 55.9695 32.801 56.008 32.1664 55.4407C31.8395 55.1523 31.6472 54.7485 31.6376 54.3062C31.6376 53.8639 31.8011 53.4505 32.1184 53.1428L35.6757 49.6912L38.0217 47.4222C38.1131 47.3351 38.1863 47.2307 38.2368 47.115C38.2874 46.9993 38.3144 46.8747 38.3162 46.7484C38.318 46.6222 38.2945 46.4968 38.2473 46.3797C38.2 46.2626 38.1299 46.1562 38.0409 46.0665C37.9538 45.9751 37.8494 45.9019 37.7337 45.8514C37.618 45.8008 37.4934 45.7738 37.3671 45.7721C37.2409 45.7703 37.1155 45.7937 36.9985 45.841C36.8814 45.8882 36.7749 45.9584 36.6853 46.0473L29.8012 52.7102C29.2148 53.2678 28.3206 53.2678 27.7534 52.7006C27.4553 52.4218 27.3015 52.0372 27.3111 51.6334C27.3207 51.2295 27.4841 50.8546 27.7918 50.5758L40.8291 38.6441C42.9924 39.0575 44.8865 41.0862 44.9057 41.1054C44.9538 41.1631 45.0211 41.2208 45.0884 41.2593C48.665 43.5764 50.7706 41.7015 50.8571 41.6246C52.7512 39.9036 51.8474 37.1923 51.0206 35.8559C50.3254 34.7046 49.5169 33.6256 48.6073 32.635Z" fill="white"/>
<path d="M39.1946 30.6061C40.2138 30.2023 41.3195 30.1735 42.3001 30.5388C44.1942 31.2215 46.944 32.8848 49.3861 36.8652C49.4053 36.8941 50.7513 39.1246 49.5591 40.2015C49.5303 40.2303 48.4246 41.0956 46.2229 39.7015C45.7325 39.1919 43.3866 36.9325 40.5984 36.6729C40.3292 36.6441 40.0599 36.7402 39.858 36.9229L26.4938 49.1622C26.4842 49.1622 26.4842 49.1622 26.4842 49.1718C25.3978 48.9026 24.6286 47.9796 24.2825 47.4701L28.9936 34.6635L39.1946 30.6061ZM18.9849 30.51C20.7924 30.635 24.5036 31.0196 26.8399 32.0003C27.3591 32.2214 27.6187 32.8463 27.4168 33.3848L21.725 48.8449C21.5616 49.268 21.1481 49.566 20.6866 49.566H18.9176C18.3695 49.566 17.9273 49.1238 17.9273 48.5757V31.4907C17.9273 30.9138 18.408 30.4619 18.9849 30.51ZM65.0097 47.1047H63.3368C62.8464 47.1047 62.4234 46.797 62.2792 46.3259L57.6161 30.9042C57.4527 30.3754 57.7026 29.8081 58.2026 29.5774C60.3408 28.6344 62.6365 28.0996 64.9712 28.0006C65.5385 27.9814 66 28.4236 66 28.9909V46.1144C66 46.6624 65.5577 47.1047 65.0097 47.1047Z" fill="white"/>
</svg>
