<svg width="55" height="55" viewBox="0 0 55 55" fill="none" xmlns="http://www.w3.org/2000/svg">
<g clip-path="url(#clip0_10_428)">
<mask id="mask0_10_428" style="mask-type:luminance" maskUnits="userSpaceOnUse" x="1" y="1" width="54" height="54">
<path d="M1.47095 1.5061H54.4891V54.5243H1.47095V1.5061Z" fill="white"/>
</mask>
<g mask="url(#mask0_10_428)">
<path d="M46.6239 17.2048L46.62 17.198C46.6013 17.1774 46.5758 17.1685 46.5552 17.1489C45.8774 16.531 44.9942 16.187 44.077 16.1838H40.0958V5.25317C40.095 4.47926 39.7872 3.73727 39.24 3.19003C38.6927 2.64279 37.9507 2.33501 37.1768 2.33423H11.0752C10.3013 2.33501 9.55929 2.64279 9.01205 3.19003C8.46481 3.73727 8.15703 4.47926 8.15625 5.25317V50.7771C8.15703 51.5511 8.46481 52.293 9.01205 52.8403C9.55929 53.3875 10.3013 53.6953 11.0752 53.6961H37.1778C37.9517 53.6953 38.6937 53.3875 39.241 52.8403C39.7882 52.293 40.096 51.5511 40.0968 50.7771V37.6846H44.077C45.0824 37.6846 45.9916 37.2801 46.6632 36.6301C46.6681 36.6252 46.6749 36.6242 46.6799 36.6193L46.6818 36.6144C47.0367 36.2683 47.3187 35.8546 47.5112 35.3978C47.7038 34.9411 47.803 34.4504 47.803 33.9547V19.9117C47.8023 19.404 47.6972 18.9018 47.4944 18.4364C47.2915 17.9709 46.9952 17.5521 46.6239 17.2058V17.2048ZM44.077 17.8411C44.242 17.8411 44.4001 17.8656 44.5532 17.9019L33.0404 27.9469L21.5198 17.9029C21.6749 17.8656 21.834 17.8411 22.0009 17.8411H44.077ZM29.2025 26.7992L20.3711 35.2183C20.0875 34.858 19.9327 34.4132 19.9312 33.9547V19.9117C19.9312 19.5583 20.0284 19.2303 20.1855 18.9387L29.2025 26.7992ZM17.5022 3.99154H30.7489V5.08136C30.7489 5.68321 30.2599 6.17117 29.659 6.17117H18.594C17.9921 6.17117 17.5041 5.68321 17.5041 5.08136V3.99154H17.5022ZM11.0752 3.99154H15.8458V5.08136C15.8464 5.80961 16.1358 6.5079 16.6507 7.02295C17.1656 7.53799 17.8637 7.8277 18.592 7.82848H29.659C30.3873 7.82796 31.0856 7.5385 31.6006 7.02364C32.1157 6.50878 32.4054 5.81059 32.4062 5.08234V3.99154H37.1788C37.8749 3.99154 38.4414 4.55805 38.4414 5.25317V16.1838H21.9999C21.0397 16.1838 20.1717 16.5588 19.51 17.1577C19.4933 17.1744 19.4707 17.1823 19.454 17.2009L19.4511 17.2078C19.0804 17.5539 18.7847 17.9723 18.5823 18.4372C18.3798 18.9021 18.2748 19.4036 18.2739 19.9107V20.0413H15.1046C14.8848 20.0413 14.674 20.1286 14.5186 20.284C14.3632 20.4394 14.2759 20.6502 14.2759 20.87C14.2759 21.0897 14.3632 21.3005 14.5186 21.4559C14.674 21.6113 14.8848 21.6986 15.1046 21.6986H18.2739V25.2165H15.1046C14.8848 25.2165 14.674 25.3038 14.5186 25.4592C14.3632 25.6146 14.2759 25.8254 14.2759 26.0451C14.2759 26.2649 14.3632 26.4757 14.5186 26.6311C14.674 26.7865 14.8848 26.8738 15.1046 26.8738H18.2739V31.1594H15.1046C14.8899 31.1668 14.6864 31.2573 14.5372 31.4118C14.3879 31.5663 14.3044 31.7728 14.3044 31.9876C14.3044 32.2024 14.3879 32.4089 14.5372 32.5634C14.6864 32.7179 14.8899 32.8084 15.1046 32.8158H18.2739V33.9547C18.2744 34.9431 18.667 35.8909 19.3655 36.5902C20.0641 37.2894 21.0115 37.683 21.9999 37.6846H38.4404V47.6893H9.81356V5.25317C9.81356 4.55805 10.3791 3.99154 11.0752 3.99154ZM37.1778 52.0388H11.0752C10.7407 52.0383 10.4201 51.9052 10.1837 51.6687C9.94717 51.4322 9.81408 51.1116 9.81356 50.7771V49.3456H38.4404V50.7771C38.4404 51.4732 37.8739 52.0388 37.1778 52.0388ZM44.077 36.0273H21.9999C21.9763 36.0273 21.9537 36.0214 21.9312 36.0204L30.4563 27.8929L32.4955 29.671C32.6464 29.8029 32.84 29.8757 33.0404 29.8757C33.2409 29.8757 33.4345 29.8029 33.5853 29.671L35.9712 27.5886L44.7319 35.9114C44.5248 35.9802 44.3068 36.0273 44.077 36.0273ZM46.1467 33.9556C46.1467 34.2551 46.079 34.5388 45.9641 34.7971L37.2259 26.4938L45.8905 18.9338C46.0485 19.2264 46.1457 19.5553 46.1457 19.9107V33.9547L46.1467 33.9556Z" fill="#8835C3"/>
</g>
</g>
<defs>
<clipPath id="clip0_10_428">
<rect width="54" height="54" fill="white" transform="translate(0.97998 0.549805)"/>
</clipPath>
</defs>
</svg>
