<svg width="55" height="55" viewBox="0 0 55 55" fill="none" xmlns="http://www.w3.org/2000/svg">
<g clip-path="url(#clip0_10_419)">
<mask id="mask0_10_419" style="mask-type:luminance" maskUnits="userSpaceOnUse" x="1" y="1" width="54" height="54">
<path d="M1.14795 1.5061H54.1661V54.5243H1.14795V1.5061Z" fill="white"/>
</mask>
<g mask="url(#mask0_10_419)">
<path d="M22.8648 33.0307C25.2447 35.1288 27.1867 36.5908 30.4523 36.5908H41.4094C42.889 36.5908 44.0868 35.9172 44.7809 34.6949C45.4299 33.5501 45.5114 32.041 44.9901 31.0464C45.3553 30.8795 45.6852 30.6193 45.967 30.2698C46.9782 29.0101 47.1481 26.8482 46.6709 25.6189C46.5917 25.4098 46.484 25.2125 46.3509 25.0328C46.5453 24.8728 46.7377 24.6558 46.9154 24.3632C47.8216 22.8659 47.8874 20.0805 47.0479 18.6294C46.9266 18.4168 46.7766 18.2219 46.6022 18.0501C47.0833 17.5003 47.3759 16.6432 47.3759 15.627C47.3769 13.7517 46.2802 11.735 43.8688 11.7321L34.9146 11.7223C36.7526 9.04192 36.6201 5.27959 35.49 3.46028C34.8125 2.36948 33.9132 2.20061 33.2122 2.42152C32.4218 2.44115 31.7119 3.29043 30.6231 4.59723C30.2284 5.06948 29.8062 5.57708 29.3723 6.04148C25.6168 10.061 24.3895 11.3826 23.9664 11.8558L22.8275 12.3398C22.603 11.8064 22.2261 11.351 21.7442 11.0305C21.2622 10.7101 20.6964 10.5388 20.1177 10.5382H13.2646C12.4859 10.5395 11.7395 10.8496 11.1892 11.4005C10.6388 11.9514 10.3294 12.6981 10.3289 13.4768V32.0135C10.3292 32.7924 10.6384 33.5393 11.1888 34.0904C11.7392 34.6415 12.4857 34.9518 13.2646 34.9531H20.1177C20.7171 34.9514 21.3016 34.7663 21.7927 34.4227C22.2838 34.079 22.6579 33.5932 22.8648 33.0307ZM23.0572 14.0423L24.7764 13.3118C24.9032 13.2583 25.0146 13.174 25.1004 13.0664C25.3085 12.8298 27.5451 10.4224 30.5819 7.17253C31.0433 6.67966 31.4753 6.16028 31.8955 5.65759C32.3825 5.07439 33.0374 4.28893 33.3398 4.09061C33.4604 4.08984 33.5794 4.06269 33.6883 4.01108C33.8219 3.95217 33.9917 4.18683 34.083 4.33508C34.9863 5.79112 35.0806 9.87057 32.5131 11.899C32.3776 12.0054 32.2786 12.1515 32.2301 12.3169C32.1816 12.4823 32.1859 12.6587 32.2424 12.8215C32.299 12.9843 32.4049 13.1254 32.5455 13.2251C32.6861 13.3248 32.8543 13.3781 33.0266 13.3776L43.8678 13.3884C45.6312 13.3904 45.7195 15.2529 45.7195 15.627C45.7195 16.543 45.3563 17.0467 45.2051 17.0477L45.0588 17.0536C44.4147 17.0722 43.9376 17.5248 43.9503 18.109C43.9621 18.6205 44.4029 19.1507 45.1638 19.1193C45.2424 19.1213 45.4142 19.1144 45.6135 19.459C46.1565 20.3996 46.0966 22.5164 45.4986 23.5041C45.3808 23.7005 45.263 23.8006 45.2061 23.8006C45.1406 23.7983 45.0741 23.8033 45.0097 23.8153C44.4147 23.9322 44.0102 24.3946 44.023 24.9385C44.0357 25.4844 44.4579 25.9253 44.9959 25.994C45.2443 26.1815 45.4741 27.5354 44.9793 28.7068C44.5561 29.7033 44.0141 29.6198 43.8384 29.5904C43.7961 29.5842 43.7535 29.5812 43.7107 29.5816L43.3887 29.5825C42.9685 29.56 42.5836 29.7475 42.3735 30.0833C42.2782 30.2353 42.2252 30.41 42.22 30.5893C42.2149 30.7686 42.2577 30.9461 42.3441 31.1034C42.5355 31.448 42.9096 31.6532 43.3622 31.6532C43.3691 31.6463 43.426 31.6502 43.5026 31.7808C43.7559 32.204 43.7657 33.1259 43.3396 33.877C42.941 34.578 42.292 34.9344 41.4094 34.9344H30.4523C27.4813 34.9344 25.877 33.5029 23.2192 31.1318L23.0572 30.9865V14.0423ZM21.3999 13.4945V32.0145C21.3999 32.7214 20.8246 33.2958 20.1177 33.2958H13.2646C12.9253 33.295 12.6001 33.1597 12.3605 32.9195C12.1208 32.6793 11.9862 32.3538 11.9862 32.0145V13.4778C11.9862 12.7709 12.5596 12.1945 13.2646 12.1945H20.1177C20.8246 12.1945 21.3999 12.7699 21.3999 13.4768V13.4945ZM15.8359 44.8341L12.1021 44.1115L10.2612 40.7831C10.1898 40.6533 10.0849 40.545 9.95744 40.4695C9.82996 40.3941 9.68455 40.3542 9.5364 40.3541C9.38825 40.354 9.24279 40.3937 9.1152 40.469C8.98761 40.5442 8.88257 40.6524 8.81104 40.7821L6.96915 44.1125L3.23627 44.8341C3.09111 44.8625 2.95619 44.9293 2.8455 45.0274C2.7348 45.1255 2.65235 45.2514 2.60668 45.3921C2.56102 45.5328 2.5538 45.6832 2.58578 45.8276C2.61776 45.972 2.68777 46.1053 2.78856 46.2136L5.38547 48.9921L4.91715 52.7652C4.89901 52.9121 4.92056 53.0612 4.97955 53.197C5.03854 53.3327 5.13281 53.4502 5.25257 53.5372C5.37233 53.6242 5.5132 53.6775 5.66055 53.6916C5.80789 53.7057 5.95632 53.6801 6.09042 53.6174L9.5366 52.0073L12.9798 53.6174C13.1139 53.6808 13.2625 53.7069 13.4101 53.6931C13.5578 53.6793 13.699 53.626 13.8189 53.5389C13.9389 53.4518 14.0332 53.334 14.092 53.1978C14.1508 53.0617 14.1719 52.9123 14.1531 52.7652L13.6848 48.9921L16.2837 46.2136C16.3844 46.1053 16.4545 45.972 16.4864 45.8276C16.5184 45.6832 16.5112 45.5328 16.4655 45.3921C16.4199 45.2514 16.3374 45.1255 16.2267 45.0274C16.116 44.9293 15.9811 44.8625 15.8359 44.8341ZM12.2101 48.1428C12.1274 48.2315 12.0652 48.3373 12.0278 48.4526C11.9905 48.568 11.979 48.6901 11.9941 48.8105L12.324 51.482L9.88711 50.3421C9.77727 50.2906 9.65743 50.2639 9.53611 50.2639C9.41479 50.2639 9.29495 50.2906 9.18511 50.3421L6.74529 51.482L7.07616 48.8114C7.09126 48.6911 7.07974 48.569 7.04242 48.4536C7.00509 48.3382 6.94288 48.2325 6.86016 48.1438L5.02122 46.1753L7.66427 45.6647C7.78302 45.6413 7.89523 45.5923 7.99308 45.5211C8.09093 45.4499 8.17205 45.3582 8.23078 45.2524L9.5366 42.894L10.8395 45.2514C10.8981 45.3573 10.9792 45.4491 11.0771 45.5203C11.1749 45.5915 11.2872 45.6405 11.406 45.6637L14.05 46.1753L12.2101 48.1428ZM34.2009 44.8351L30.466 44.1125L28.6261 40.7831C28.3345 40.2549 27.4675 40.2549 27.1759 40.7831L25.335 44.1115L21.6012 44.8341C21.456 44.8625 21.3211 44.9293 21.2104 45.0274C21.0997 45.1255 21.0173 45.2514 20.9716 45.3921C20.9259 45.5328 20.9187 45.6832 20.9507 45.8276C20.9827 45.972 21.0527 46.1053 21.1535 46.2136L23.7494 48.9921L23.2811 52.7652C23.2629 52.9121 23.2845 53.0612 23.3435 53.197C23.4025 53.3327 23.4967 53.4502 23.6165 53.5372C23.7363 53.6242 23.8771 53.6775 24.0245 53.6916C24.1718 53.7057 24.3203 53.6801 24.4543 53.6174L27.9005 52.0073L31.3438 53.6174C31.4778 53.6804 31.6262 53.7062 31.7736 53.6923C31.921 53.6784 32.0619 53.6252 32.1817 53.5382C32.3016 53.4513 32.3959 53.3338 32.4549 53.198C32.5138 53.0622 32.5353 52.9131 32.517 52.7662L32.0517 48.9921L34.6486 46.2136C34.7494 46.1054 34.8195 45.9722 34.8515 45.8278C34.8835 45.6835 34.8763 45.5331 34.8306 45.3925C34.7849 45.2518 34.7024 45.126 34.5917 45.028C34.481 44.9299 34.346 44.8633 34.2009 44.8351ZM30.577 48.1438C30.4943 48.2325 30.4321 48.3383 30.3948 48.4536C30.3575 48.569 30.3459 48.6911 30.361 48.8114L30.6899 51.482L28.252 50.3421C28.1422 50.2906 28.0223 50.2639 27.901 50.2639C27.7797 50.2639 27.6599 50.2906 27.55 50.3421L25.1102 51.483L25.4411 48.8114C25.4561 48.6911 25.4445 48.5688 25.407 48.4534C25.3695 48.3381 25.307 48.2324 25.2241 48.1438L23.3861 46.1762L26.0302 45.6657C26.1493 45.6427 26.2619 45.5938 26.3601 45.5226C26.4583 45.4513 26.5397 45.3594 26.5986 45.2533L27.9005 42.897L29.2034 45.2533C29.2622 45.3593 29.3434 45.4511 29.4415 45.5224C29.5395 45.5936 29.6519 45.6425 29.7709 45.6657L32.4149 46.1762L30.577 48.1438ZM52.7091 45.3918C52.6633 45.251 52.5807 45.1251 52.4699 45.0271C52.3591 44.929 52.224 44.8624 52.0788 44.8341L48.3439 44.1115L46.504 40.7831C46.4326 40.6533 46.3276 40.5451 46.2001 40.4697C46.0725 40.3943 45.9271 40.3546 45.7789 40.3546C45.6308 40.3546 45.4854 40.3943 45.3578 40.4697C45.2303 40.5451 45.1253 40.6533 45.0539 40.7831L43.213 44.1115L39.4781 44.8341C39.3331 44.8627 39.1982 44.9295 39.0877 45.0277C38.9771 45.1259 38.8948 45.2518 38.8492 45.3925C38.8036 45.5332 38.7965 45.6835 38.8286 45.8278C38.8606 45.9722 38.9306 46.1053 39.0314 46.2136L41.6293 48.9921L41.1619 52.7652C41.1438 52.9121 41.1654 53.0612 41.2244 53.197C41.2833 53.3327 41.3776 53.4502 41.4974 53.5372C41.6171 53.6242 41.758 53.6775 41.9053 53.6916C42.0527 53.7057 42.2011 53.6801 42.3352 53.6174L45.7794 52.0073L49.2246 53.6174C49.3587 53.6805 49.5072 53.7063 49.6547 53.6924C49.8022 53.6784 49.9432 53.6251 50.0631 53.538C50.183 53.451 50.2773 53.3333 50.3362 53.1974C50.395 53.0615 50.4164 52.9122 50.3979 52.7652L49.9296 48.9921L52.5265 46.2136C52.6277 46.1054 52.698 45.9722 52.7301 45.8276C52.7622 45.6831 52.755 45.5326 52.7091 45.3918ZM48.4549 48.1438C48.3722 48.2325 48.31 48.3382 48.2726 48.4536C48.2353 48.569 48.2238 48.6911 48.2389 48.8114L48.5698 51.482L46.1299 50.3421C46.0201 50.2907 45.9003 50.264 45.7789 50.264C45.6576 50.264 45.5378 50.2907 45.4279 50.3421L42.9901 51.482L43.321 48.8114C43.336 48.6911 43.3244 48.569 43.2871 48.4536C43.2498 48.3383 43.1876 48.2325 43.105 48.1438L41.265 46.1762L43.9091 45.6657C44.0278 45.6424 44.1401 45.5934 44.2379 45.5222C44.3358 45.4509 44.4169 45.3592 44.4756 45.2533L45.7794 42.896L47.0813 45.2524C47.1401 45.3584 47.2213 45.4502 47.3193 45.5215C47.4174 45.5927 47.5299 45.6416 47.6488 45.6647L50.2938 46.1762L48.4549 48.1438Z" fill="#8835C3"/>
</g>
</g>
<defs>
<clipPath id="clip0_10_419">
<rect width="54" height="54" fill="white" transform="translate(0.330078 0.549805)"/>
</clipPath>
</defs>
</svg>
