<?xml version="1.0" standalone="no"?>
<!DOCTYPE svg PUBLIC "-//W3C//DTD SVG 20010904//EN"
 "http://www.w3.org/TR/2001/REC-SVG-20010904/DTD/svg10.dtd">
<svg version="1.0" xmlns="http://www.w3.org/2000/svg"
 width="336.000000pt" height="100.000000pt" viewBox="0 0 336.000000 100.000000"
 preserveAspectRatio="xMidYMid meet">

<g transform="translate(0.000000,100.000000) scale(0.100000,-0.100000)"
fill="#000000" stroke="none">
<path d="M378 938 c5 -5 16 -8 23 -6 8 3 3 7 -10 11 -17 4 -21 3 -13 -5z"/>
<path d="M455 941 c27 -6 25 -8 -25 -15 -30 -5 -65 -9 -77 -10 -11 0 -19 -4
-17 -7 5 -9 -46 -30 -57 -23 -5 3 -8 0 -7 -7 2 -6 -3 -14 -11 -17 -10 -3 -11
0 -5 9 7 12 5 12 -9 0 -20 -16 -23 -26 -4 -15 8 5 8 2 -2 -9 -16 -20 -36 -23
-25 -4 4 6 -4 2 -18 -11 -13 -12 -26 -21 -29 -20 -2 2 -3 1 -2 -1 2 -2 -3 -11
-9 -20 -7 -9 3 -2 22 14 l33 30 -33 -42 c-18 -23 -37 -40 -41 -37 -5 3 -6 -1
-3 -9 3 -8 0 -18 -7 -23 -8 -5 -10 -3 -4 6 5 8 4 11 -3 6 -6 -4 -8 -14 -5 -23
5 -12 3 -14 -7 -8 -8 5 -11 4 -7 -3 10 -15 -3 -43 -16 -35 -7 4 -8 0 -4 -11 8
-21 -3 -73 -12 -58 -3 6 -6 -39 -6 -98 0 -60 4 -103 8 -97 5 7 7 1 4 -15 -2
-17 0 -25 6 -21 6 4 8 -2 5 -15 -4 -12 -3 -20 1 -17 10 5 43 -64 36 -75 -3 -5
0 -12 6 -16 8 -5 9 -3 4 7 -10 18 0 8 56 -56 l43 -50 -49 45 -50 45 43 -46
c24 -26 51 -46 60 -45 10 0 16 -5 14 -12 -1 -8 2 -11 8 -7 11 7 52 -13 46 -23
-2 -4 6 -7 17 -8 12 -1 47 -8 77 -16 40 -11 50 -17 35 -21 -11 -3 3 -3 30 0
28 3 76 7 107 7 31 0 51 4 45 8 -8 5 -7 8 4 8 9 0 43 13 75 30 68 34 68 34 58
18 -4 -8 -3 -10 2 -5 5 5 9 12 9 15 0 4 4 13 8 19 11 17 30 17 21 1 -4 -7 4
-3 18 10 13 12 27 20 30 17 2 -3 5 2 5 10 0 12 -6 10 -25 -7 -24 -22 -24 -21
2 14 16 21 32 36 36 33 5 -3 12 0 16 6 5 8 3 9 -6 4 -8 -5 -11 -3 -8 6 3 8 10
14 15 14 6 0 15 4 20 9 5 5 3 6 -4 2 -17 -9 -16 -1 2 34 8 16 22 53 29 82 8
29 15 43 15 31 1 -12 5 -24 10 -28 6 -3 6 7 1 26 -5 17 -11 71 -12 119 -2 48
-6 83 -9 78 -4 -5 -9 2 -13 17 -4 14 -4 31 0 37 4 6 3 9 -2 5 -5 -3 -22 18
-38 46 -16 28 -22 46 -14 39 12 -9 15 -9 15 2 0 8 -8 13 -17 11 -10 -2 -35 16
-61 43 -24 25 -35 39 -24 31 18 -13 19 -13 6 3 -7 10 -17 15 -22 12 -12 -7
-51 15 -44 26 4 6 -1 7 -11 3 -13 -5 -15 -3 -9 7 5 9 4 11 -3 6 -6 -4 -30 -1
-52 5 -24 7 -36 15 -29 20 6 4 -10 5 -37 3 -40 -3 -43 -2 -19 5 23 7 10 9 -50
9 -51 0 -69 -3 -50 -7z m66 -58 c-5 -26 -6 -26 -9 -5 -4 28 -22 29 -22 1 0
-11 -4 -18 -9 -15 -18 11 1 46 24 46 19 0 21 -4 16 -27z m-58 10 c3 -5 1 -17
-3 -28 -6 -17 -7 -16 -12 8 -5 25 5 37 15 20z m109 -20 c-3 -16 -7 -22 -10
-15 -4 13 4 42 11 42 2 0 2 -12 -1 -27z m38 2 c0 -8 -3 -16 -7 -18 -5 -3 -8 5
-8 18 0 13 3 21 8 18 4 -2 7 -10 7 -18z m-230 -15 c6 -11 8 -20 6 -20 -3 0
-10 9 -16 20 -6 11 -8 20 -6 20 3 0 10 -9 16 -20z m257 5 c0 -8 -6 -16 -13
-19 -7 -3 -10 2 -7 15 6 22 20 26 20 4z m-281 -17 c12 -14 13 -18 3 -10 -9 6
-18 10 -21 7 -2 -3 -5 2 -5 10 0 19 0 19 23 -7z m58 7 c3 -8 1 -15 -4 -15 -6
0 -10 7 -10 15 0 8 2 15 4 15 2 0 6 -7 10 -15z m-110 -9 c-3 -8 -1 -17 5 -21
6 -3 11 -11 11 -18 0 -6 -7 -1 -16 11 -8 12 -21 20 -27 16 -7 -3 -3 2 7 10 24
20 27 20 20 2z m383 -23 c-11 -12 -16 -12 -22 -2 -5 7 -4 10 3 5 6 -3 14 4 18
16 5 15 9 18 12 10 2 -8 -2 -21 -11 -29z m30 -8 c-7 -13 -14 -20 -15 -14 -2 5
2 16 8 24 18 21 20 18 7 -10z m-79 -15 c68 -29 150 -117 176 -188 25 -71 19
-188 -13 -254 -91 -187 -332 -245 -496 -120 -144 109 -171 308 -63 458 86 121
255 165 396 104z m98 -8 c-17 -16 -18 -16 -5 5 7 12 15 20 18 17 3 -2 -3 -12
-13 -22z m-453 7 c15 0 17 -2 7 -6 -8 -3 -18 -10 -21 -15 -3 -5 -14 1 -25 13
-18 21 -18 22 -1 16 10 -4 28 -7 40 -8z m-33 -39 c0 -5 -9 -6 -20 -3 -11 3
-20 9 -20 13 0 5 9 6 20 3 11 -3 20 -9 20 -13z m560 7 c0 -15 -20 -37 -34 -37
-5 0 -2 8 7 18 10 10 14 22 10 25 -3 4 -1 7 5 7 7 0 12 -6 12 -13z m-605 -46
c1 -16 -1 -17 -17 -8 -23 15 -24 29 -1 20 12 -5 14 -3 8 8 -4 8 -4 11 0 6 5
-4 9 -16 10 -26z m620 -1 c-10 -11 -23 -20 -29 -20 -6 0 0 9 14 20 32 25 38
25 15 0z m45 -30 c0 -5 -7 -7 -15 -4 -8 4 -22 1 -30 -6 -13 -11 -14 -10 -9 4
7 17 54 23 54 6z m-690 -15 c16 -19 1 -19 -24 0 -16 12 -17 15 -4 15 8 0 21
-7 28 -15z m-16 -24 c4 -5 -3 -7 -14 -4 -27 7 -25 -11 3 -25 12 -6 17 -11 11
-11 -18 -2 -47 26 -40 37 9 14 33 16 40 3z m710 -5 c-3 -9 -12 -12 -22 -9 -12
5 -14 2 -9 -11 4 -10 3 -15 -3 -11 -21 13 -5 32 37 44 1 1 0 -5 -3 -13z m-737
-88 c-3 -8 -6 -5 -6 6 -1 11 2 17 5 13 3 -3 4 -12 1 -19z m-4 -65 c-7 -2 -19
-2 -25 0 -7 3 -2 5 12 5 14 0 19 -2 13 -5z m767 3 c0 -2 -7 -9 -15 -16 -13
-11 -14 -10 -9 4 5 14 24 23 24 12z m-750 -25 c0 -13 -30 -22 -43 -14 -7 4 -2
10 13 14 14 4 26 7 28 8 1 1 2 -3 2 -8z m760 -25 c0 -9 -40 -13 -46 -5 -3 5 6
9 20 9 14 0 26 -2 26 -4z m-753 -26 c4 -12 3 -13 -5 -1 -6 8 -19 12 -31 8 -12
-3 -21 -1 -21 5 0 15 53 5 57 -12z m734 3 c-11 -5 -11 -7 0 -14 10 -6 6 -9
-13 -9 -31 0 -38 16 -10 23 24 7 40 6 23 0z m-739 -30 c-6 -2 -10 -8 -8 -12 3
-4 -4 -7 -15 -7 -24 0 -25 13 -1 19 24 6 40 7 24 0z m729 -26 c-6 -8 -8 -17
-4 -20 3 -4 4 -7 1 -7 -3 0 -13 9 -23 20 -18 20 -17 20 10 20 22 0 25 -3 16
-13z m-715 -22 c-11 -8 -25 -15 -30 -15 -6 1 0 7 14 15 32 19 40 18 16 0z
m694 -15 c12 -7 12 -10 1 -10 -7 0 -11 -6 -8 -15 5 -12 2 -12 -20 -2 -22 10
-24 13 -8 15 14 3 15 6 4 13 -12 7 -12 9 1 9 8 0 22 -5 30 -10z m-695 -24 c0
-15 -4 -21 -9 -16 -5 5 -6 16 -3 24 9 22 12 20 12 -8z m49 -29 c-2 -7 -14 -13
-25 -14 -21 -2 -21 -1 -3 12 24 18 35 19 28 2z m617 -20 c-10 -9 -11 -8 -5 6
3 10 9 15 12 12 3 -3 0 -11 -7 -18z m-41 -12 c19 -22 8 -25 -12 -3 -10 10 -14
18 -9 18 5 0 14 -7 21 -15z m-550 -20 c-6 -8 -8 -20 -4 -27 5 -10 4 -10 -6 -1
-11 10 -11 15 0 28 7 8 15 15 17 15 3 0 0 -7 -7 -15z m530 -10 c11 -13 10 -14
-4 -9 -9 3 -16 10 -16 15 0 13 6 11 20 -6z m-490 1 c0 -2 -8 -10 -17 -17 -16
-13 -17 -12 -4 4 13 16 21 21 21 13z m460 -10 c0 -8 4 -16 9 -18 5 -1 3 -8 -4
-15 -11 -10 -17 -7 -31 15 -17 26 -17 27 1 12 17 -14 18 -13 12 3 -3 9 -2 17
3 17 6 0 10 -6 10 -14z m-454 -24 c-18 -16 -18 -16 -6 6 6 13 14 21 18 18 3
-4 -2 -14 -12 -24z m412 -17 c-3 -31 -9 -31 -27 -4 -11 19 -11 21 3 16 9 -4
16 -2 16 3 0 6 2 10 5 10 3 0 4 -11 3 -25z m-347 -18 c-10 -9 -11 -8 -5 6 3
10 9 15 12 12 3 -3 0 -11 -7 -18z m31 -14 c-3 -16 -7 -22 -10 -15 -4 13 4 42
11 42 2 0 2 -12 -1 -27z m240 -11 c-4 -11 -6 -11 -13 0 -5 7 -9 19 -9 26 0 10
3 10 14 0 7 -7 11 -19 8 -26z m-175 21 c-4 -3 -2 -12 5 -20 16 -20 -6 -43 -24
-24 -11 10 -10 11 5 6 10 -4 17 -2 17 4 0 6 -4 11 -10 11 -5 0 -10 7 -10 15 0
8 5 15 12 15 6 0 8 -3 5 -7z m40 -40 c-3 -10 -5 -4 -5 12 0 17 2 24 5 18 2 -7
2 -21 0 -30z m53 10 c0 -22 -2 -25 -10 -13 -13 20 -13 40 0 40 6 0 10 -12 10
-27z m23 7 c3 -11 1 -20 -4 -20 -5 0 -9 9 -9 20 0 11 2 20 4 20 2 0 6 -9 9
-20z"/>
<path d="M413 773 c-7 -2 -13 -11 -13 -18 0 -7 -7 -15 -15 -19 -21 -8 -19 -33
5 -46 27 -14 25 -27 -4 -34 -18 -4 -25 -14 -28 -40 -3 -29 0 -37 26 -52 27
-16 28 -18 10 -25 -34 -13 -59 -10 -74 11 -10 14 -16 16 -22 7 -6 -9 -8 -9 -8
1 0 10 -3 10 -15 -2 -17 -17 -20 -36 -4 -36 5 0 7 -4 4 -10 -3 -5 1 -10 10
-10 12 0 15 -6 10 -19 -5 -16 0 -20 22 -24 27 -4 27 -4 6 -12 -24 -8 -31 -25
-10 -25 36 2 99 59 64 60 -6 0 -4 5 5 11 20 11 58 -4 58 -23 0 -7 5 -6 15 2
12 10 15 10 15 -3 0 -16 16 -17 38 -3 8 5 18 4 25 -3 6 -6 7 -11 1 -12 -38 -3
-70 -12 -75 -21 -4 -7 -9 -5 -12 3 -3 8 -6 4 -6 -9 -1 -15 -12 -27 -36 -39
-37 -18 -48 -39 -15 -29 11 3 29 9 40 12 14 5 20 2 20 -10 0 -9 5 -23 12 -30
10 -11 15 -10 27 1 7 8 20 12 27 9 8 -3 14 -1 14 5 0 6 3 8 8 5 4 -2 16 3 27
11 15 12 16 14 3 10 -26 -9 -11 18 16 31 16 7 27 7 34 0 7 -7 25 -1 56 17 56
33 64 44 34 47 -13 1 -30 2 -38 4 -8 1 -37 2 -63 3 -37 1 -54 7 -72 26 -14 13
-25 31 -25 40 0 21 33 19 47 -4 6 -10 26 -24 43 -30 l32 -11 -42 46 c-31 34
-39 49 -31 57 6 6 11 19 11 28 0 14 8 16 48 12 l47 -4 -25 21 -25 21 30 -14
c41 -19 124 -41 131 -34 3 3 -7 13 -23 23 -97 60 -119 75 -132 85 -32 28 -174
56 -208 42z m-8 -253 c-3 -5 -14 -10 -23 -10 -15 0 -15 2 -2 10 20 13 33 13
25 0z m170 -90 c7 -12 -42 -36 -53 -26 -4 4 2 14 12 22 23 17 33 18 41 4z"/>
<path d="M268 613 c-21 -5 -24 -23 -4 -23 8 0 16 7 20 15 3 8 4 14 3 14 -1 -1
-10 -3 -19 -6z"/>
<path d="M217 536 c-4 -10 -1 -13 8 -9 8 3 12 9 9 14 -7 12 -11 11 -17 -5z"/>
<path d="M778 483 c7 -3 16 -2 19 1 4 3 -2 6 -13 5 -11 0 -14 -3 -6 -6z"/>
<path d="M218 463 c7 -3 16 -2 19 1 4 3 -2 6 -13 5 -11 0 -14 -3 -6 -6z"/>
<path d="M405 460 c3 -5 11 -10 16 -10 6 0 7 5 4 10 -3 6 -11 10 -16 10 -6 0
-7 -4 -4 -10z"/>
<path d="M778 453 c7 -3 16 -2 19 1 4 3 -2 6 -13 5 -11 0 -14 -3 -6 -6z"/>
<path d="M355 411 c-37 -17 -54 -29 -45 -33 16 -5 120 41 120 54 0 12 -10 9
-75 -21z"/>
<path d="M754 386 c1 -8 5 -18 8 -22 4 -3 5 1 4 10 -1 8 -5 18 -8 22 -4 3 -5
-1 -4 -10z"/>
<path d="M300 294 c0 -8 5 -12 10 -9 6 4 8 11 5 16 -9 14 -15 11 -15 -7z"/>
<path d="M341 273 c-1 -17 16 -25 25 -12 4 7 3 9 -4 5 -5 -3 -13 0 -15 6 -4 9
-6 10 -6 1z"/>
<path d="M650 271 c0 -6 4 -13 10 -16 6 -3 7 1 4 9 -7 18 -14 21 -14 7z"/>
<path d="M376 243 c-6 -14 -5 -15 5 -6 7 7 10 15 7 18 -3 3 -9 -2 -12 -12z"/>
<path d="M406 237 c3 -10 9 -15 12 -12 3 3 0 11 -7 18 -10 9 -11 8 -5 -6z"/>
<path d="M606 237 c3 -10 9 -15 12 -12 3 3 0 11 -7 18 -10 9 -11 8 -5 -6z"/>
<path d="M581 224 c0 -11 3 -14 6 -6 3 7 2 16 -1 19 -3 4 -6 -2 -5 -13z"/>
<path d="M293 905 c0 -7 6 -11 14 -8 7 3 13 6 13 8 0 2 -6 5 -13 8 -8 3 -14
-1 -14 -8z"/>
<path d="M1537 863 c-4 -3 -7 -75 -7 -160 l0 -153 40 0 40 0 0 83 1 82 47 -82
c46 -81 48 -83 85 -83 l37 0 0 160 0 160 -35 0 c-19 0 -35 -4 -35 -8 0 -5 14
-7 30 -4 l30 4 0 -151 0 -151 -29 0 c-26 0 -34 9 -73 78 -25 42 -49 86 -54 97
-6 14 -10 -9 -12 -77 l-3 -98 -29 0 -30 0 0 150 0 150 38 0 c36 0 38 -2 85
-84 26 -46 47 -88 47 -94 0 -6 3 -13 8 -15 4 -3 5 15 3 40 -2 27 -6 40 -11 33
-5 -8 -22 12 -50 59 -40 68 -44 71 -79 71 -21 0 -41 -3 -44 -7z"/>
<path d="M1884 863 l54 -4 11 -47 c35 -141 36 -142 52 -70 28 123 24 118 79
118 l50 0 0 -150 0 -150 -35 0 -35 0 -1 118 -1 117 -24 -95 c-13 -52 -26 -105
-29 -117 -4 -16 -13 -23 -30 -23 -20 0 -25 6 -31 35 -3 20 -8 34 -11 31 -2 -2
-1 -20 2 -40 7 -33 10 -36 40 -36 l33 0 20 83 20 82 1 -82 1 -83 45 0 45 0 0
160 0 160 -59 0 c-66 0 -60 6 -81 -88 -7 -29 -14 -51 -17 -49 -2 3 -12 33 -21
68 l-17 64 -58 1 -57 1 54 -4z"/>
<path d="M2164 853 c3 -10 24 -82 47 -160 l42 -143 48 0 c37 0 49 4 53 18 3 9
21 73 41 142 20 69 38 133 41 143 4 14 -1 17 -35 17 -44 0 -44 0 -72 -117 -7
-29 -16 -53 -19 -53 -4 0 -17 38 -29 85 l-23 85 -50 0 c-42 0 -49 -2 -44 -17z
m100 -45 c8 -29 20 -74 27 -100 6 -27 15 -48 18 -48 4 0 19 44 32 98 24 90 27
97 52 100 17 2 27 -1 27 -10 0 -7 -17 -74 -39 -148 l-39 -135 -40 -3 -41 -3
-21 73 c-12 40 -32 108 -45 151 l-23 77 38 0 c38 0 39 -1 54 -52z"/>
<path d="M2450 863 c0 -5 43 -7 95 -5 l95 3 0 -30 c0 -25 -4 -30 -27 -33 l-28
-3 -3 -117 -3 -118 -34 0 -35 0 0 120 0 120 -32 -1 c-31 -2 -31 -2 -5 -6 l27
-4 0 -120 0 -119 45 0 44 0 3 118 3 117 28 3 c24 3 27 7 27 43 l0 39 -100 0
c-55 0 -100 -3 -100 -7z"/>
<path d="M2670 711 l0 -161 50 0 51 0 -3 158 -3 157 -47 3 -48 3 0 -160z m90
-1 l0 -150 -40 0 -40 0 0 150 0 150 40 0 40 0 0 -150z"/>
<path d="M2854 860 c-32 -13 -64 -59 -64 -92 0 -43 53 -93 108 -103 26 -4 42
-12 42 -21 0 -19 -57 -18 -68 1 -6 12 -18 14 -50 9 -23 -4 -42 -10 -42 -15 0
-27 29 -62 67 -80 89 -43 193 5 193 89 0 53 -29 85 -98 107 -38 12 -52 21 -48
31 3 8 1 14 -4 14 -6 0 -10 -9 -10 -19 0 -15 13 -23 58 -36 64 -19 91 -45 92
-91 0 -68 -74 -113 -155 -94 -36 8 -85 48 -85 69 0 16 63 22 79 7 37 -32 86
-27 79 9 -2 12 -20 23 -53 32 -54 15 -95 52 -95 84 0 33 29 79 56 89 68 26
164 -6 164 -55 0 -9 -55 -14 -63 -6 -6 6 -18 11 -26 11 -11 0 -9 -5 7 -16 23
-16 76 -12 87 7 10 15 -14 48 -45 64 -31 16 -92 19 -126 5z"/>
<path d="M3093 835 c-3 -9 -3 -18 -1 -21 3 -3 8 4 11 16 6 23 -1 27 -10 5z"/>
<path d="M817 818 c19 -21 31 -25 14 -5 -6 8 -9 16 -6 19 3 2 -2 5 -10 5 -13
0 -13 -3 2 -19z"/>
<path d="M1890 677 l0 -116 -32 -4 c-32 -4 -32 -4 5 -5 l37 -2 1 83 c1 82 1
82 14 42 7 -22 13 -35 14 -28 1 13 -29 136 -35 142 -2 2 -4 -48 -4 -112z"/>
<path d="M890 720 c6 -11 13 -20 16 -20 2 0 0 9 -6 20 -6 11 -13 20 -16 20 -2
0 0 -9 6 -20z"/>
<path d="M941 574 c0 -11 3 -14 6 -6 3 7 2 16 -1 19 -3 4 -6 -2 -5 -13z"/>
<path d="M53 495 c0 -33 2 -45 4 -27 2 18 2 45 0 60 -2 15 -4 0 -4 -33z"/>
<path d="M991 494 c0 -11 3 -14 6 -6 3 7 2 16 -1 19 -3 4 -6 -2 -5 -13z"/>
<path d="M2820 500 c13 -9 13 -10 0 -10 -12 -1 -11 -3 3 -11 9 -5 17 -17 17
-26 0 -9 2 -14 5 -11 12 11 -8 68 -24 68 -14 0 -14 -2 -1 -10z"/>
<path d="M2920 489 c0 -13 -4 -18 -12 -13 -10 5 -10 4 -1 -6 8 -8 9 -19 3 -30
-6 -12 -5 -17 6 -17 10 0 14 13 14 44 0 24 -2 43 -5 43 -3 0 -5 -9 -5 -21z"/>
<path d="M2720 484 c0 -8 -4 -12 -10 -9 -6 3 -7 -1 -4 -9 4 -11 0 -16 -15 -16
-12 0 -21 -5 -21 -11 0 -6 9 -8 21 -4 13 4 19 3 16 -2 -4 -5 0 -10 8 -10 11 0
15 12 15 39 0 21 -2 38 -5 38 -3 0 -5 -7 -5 -16z"/>
<path d="M2751 463 c-1 -24 4 -43 9 -43 12 0 12 37 0 65 -7 15 -9 10 -9 -22z"/>
<path d="M2951 464 c-1 -30 3 -41 14 -41 11 0 12 4 4 14 -9 10 -8 17 2 30 8 9
9 14 2 10 -7 -4 -13 0 -16 10 -3 10 -5 0 -6 -23z"/>
<path d="M3140 489 c0 -5 7 -9 15 -9 10 0 15 -11 16 -32 l1 -33 8 29 c5 16 6
34 2 40 -9 13 -42 17 -42 5z"/>
<path d="M1760 475 c-9 -10 -9 -15 -1 -15 6 0 11 4 11 9 0 5 8 12 18 14 14 4
14 5 1 6 -9 0 -22 -6 -29 -14z"/>
<path d="M1637 461 c-4 -17 -3 -21 5 -13 5 5 8 16 6 23 -3 8 -7 3 -11 -10z"/>
<path d="M1707 473 c-4 -3 -7 -18 -6 -32 1 -26 1 -25 10 3 9 31 7 41 -4 29z"/>
<path d="M1923 453 c1 -18 5 -33 10 -33 10 0 9 32 -3 50 -7 11 -9 6 -7 -17z"/>
<path d="M1973 473 c-7 -3 -13 -16 -13 -29 0 -15 4 -23 11 -19 6 4 8 14 5 22
-3 8 -1 11 4 8 5 -3 18 -1 27 5 16 10 16 11 1 6 -9 -3 -18 -1 -20 3 -2 4 -9 6
-15 4z"/>
<path d="M2317 459 c4 -15 8 -17 14 -8 8 14 3 29 -11 29 -4 0 -6 -9 -3 -21z"/>
<path d="M2385 472 c-12 -8 -16 -42 -5 -42 4 0 10 11 12 25 3 14 5 25 4 25 0
0 -5 -4 -11 -8z"/>
<path d="M2506 463 c-6 -14 -5 -15 5 -6 7 7 10 15 7 18 -3 3 -9 -2 -12 -12z"/>
<path d="M3026 466 c3 -9 1 -16 -5 -16 -6 0 -11 5 -11 10 0 19 -16 10 -17 -10
-2 -17 2 -20 19 -14 15 4 18 3 13 -6 -5 -9 -4 -11 3 -6 15 9 16 43 2 51 -6 3
-7 -1 -4 -9z"/>
<path d="M3092 450 c0 -19 2 -27 5 -17 2 9 2 25 0 35 -3 9 -5 1 -5 -18z"/>
<path d="M3225 470 c-3 -5 -1 -10 4 -10 6 0 11 5 11 10 0 6 -2 10 -4 10 -3 0
-8 -4 -11 -10z"/>
<path d="M1562 445 c0 -16 2 -22 5 -12 2 9 2 23 0 30 -3 6 -5 -1 -5 -18z"/>
<path d="M2042 445 c0 -16 2 -22 5 -12 2 9 2 23 0 30 -3 6 -5 -1 -5 -18z"/>
<path d="M2284 450 c0 -13 4 -16 10 -10 7 7 7 13 0 20 -6 6 -10 3 -10 -10z"/>
<path d="M2414 459 c-3 -6 -2 -15 3 -20 5 -5 9 -1 9 11 0 23 -2 24 -12 9z"/>
<path d="M2790 445 c0 -14 5 -25 10 -25 6 0 10 11 10 25 0 14 -4 25 -10 25 -5
0 -10 -11 -10 -25z"/>
<path d="M2874 458 c-5 -7 -2 -8 6 -3 10 6 12 4 6 -10 -5 -15 -4 -16 9 -5 19
15 19 16 0 23 -8 4 -17 1 -21 -5z"/>
<path d="M1662 438 c2 -6 10 -14 16 -16 7 -2 10 2 6 12 -7 18 -28 22 -22 4z"/>
<path d="M2002 438 c2 -6 10 -14 16 -16 7 -2 10 2 6 12 -7 18 -28 22 -22 4z"/>
<path d="M3310 441 c0 -4 11 -6 25 -3 14 2 25 6 25 8 0 2 -11 4 -25 4 -14 0
-25 -4 -25 -9z"/>
<path d="M1755 430 c3 -5 8 -10 11 -10 2 0 4 5 4 10 0 6 -5 10 -11 10 -5 0 -7
-4 -4 -10z"/>
<path d="M3230 430 c0 -5 5 -10 11 -10 5 0 7 5 4 10 -3 6 -8 10 -11 10 -2 0
-4 -4 -4 -10z"/>
<path d="M930 376 c0 -8 4 -17 9 -20 5 -4 7 3 4 14 -6 23 -13 26 -13 6z"/>
<path d="M2197 372 c-10 -10 -17 -28 -17 -40 0 -12 -4 -22 -9 -22 -13 0 -20
49 -7 55 6 3 -4 4 -21 2 -18 -2 -35 1 -37 7 -2 6 -5 -6 -5 -26 -1 -26 -6 -38
-18 -40 -10 -2 10 -4 44 -5 55 0 62 2 66 21 4 20 4 20 6 -1 1 -15 7 -23 19
-23 10 0 13 3 6 8 -16 11 -23 47 -12 66 12 21 5 20 -15 -2z m-53 -28 c10 -25
7 -34 -9 -34 -9 0 -15 9 -15 25 0 28 15 34 24 9z"/>
<path d="M2239 383 c0 -5 -2 -16 -4 -25 -2 -10 2 -18 9 -18 9 0 12 9 8 25 -4
24 -11 33 -13 18z"/>
<path d="M2635 376 c-14 -16 -18 -39 -5 -31 5 3 10 -1 10 -10 0 -16 -26 -32
-36 -22 -3 3 -6 19 -6 36 -1 24 -4 28 -14 21 -9 -9 -9 -17 3 -40 12 -25 20
-30 51 -29 20 0 31 3 25 6 -20 8 -16 53 5 54 13 0 14 2 2 6 -8 3 -17 9 -20 13
-3 4 -9 2 -15 -4z"/>
<path d="M2950 368 c0 -5 -10 -7 -22 -3 -21 5 -21 5 2 -9 19 -11 28 -12 39 -3
10 9 16 7 27 -8 14 -19 20 -9 6 11 -10 14 -52 25 -52 12z"/>
<path d="M3140 370 c0 -5 5 -10 11 -10 5 0 7 5 4 10 -3 6 -8 10 -11 10 -2 0
-4 -4 -4 -10z"/>
<path d="M2358 363 c12 -2 22 -10 22 -16 0 -7 4 -6 9 2 8 13 12 13 27 0 14
-11 16 -11 10 -1 -6 10 -3 13 10 10 26 -4 31 -45 7 -50 -10 -3 7 -5 37 -5 30
0 49 2 43 4 -20 7 -15 23 9 32 l22 8 -21 5 c-17 4 -23 0 -27 -18 -8 -32 -32
-31 -39 2 -4 21 -1 25 14 21 11 -3 17 -2 14 3 -2 4 -40 8 -82 8 -43 0 -68 -2
-55 -5z"/>
<path d="M2538 363 c7 -3 16 -2 19 1 4 3 -2 6 -13 5 -11 0 -14 -3 -6 -6z"/>
<path d="M2687 352 c-19 -21 -22 -32 -8 -32 5 0 11 9 14 19 2 11 15 21 28 24
21 4 22 4 3 6 -11 0 -28 -7 -37 -17z"/>
<path d="M2784 354 c21 -20 20 -42 -1 -47 -10 -2 0 -4 22 -4 22 0 33 2 24 4
-9 2 -19 15 -22 29 -4 21 -1 25 14 21 11 -3 17 -1 13 4 -3 5 -19 9 -35 9 -28
0 -29 -1 -15 -16z"/>
<path d="M3026 355 c4 -8 10 -12 15 -9 11 6 2 24 -11 24 -5 0 -7 -7 -4 -15z"/>
<path d="M3105 361 c-6 -5 -19 -11 -30 -14 -12 -3 -7 -5 11 -4 18 1 31 6 31
14 0 15 0 15 -12 4z"/>
<path d="M3270 361 c0 -6 4 -13 10 -16 6 -3 7 1 4 9 -7 18 -14 21 -14 7z"/>
<path d="M2286 335 c4 -8 8 -15 10 -15 2 0 4 7 4 15 0 8 -4 15 -10 15 -5 0 -7
-7 -4 -15z"/>
<path d="M2323 335 c0 -8 4 -15 9 -15 4 0 8 4 8 9 0 6 -4 12 -8 15 -5 3 -9 -1
-9 -9z"/>
<path d="M2710 335 c0 -8 4 -15 8 -15 5 0 9 7 9 15 0 8 -4 15 -9 15 -4 0 -8
-7 -8 -15z"/>
<path d="M2754 330 c0 -13 4 -16 10 -10 7 7 7 13 0 20 -6 6 -10 3 -10 -10z"/>
<path d="M2885 330 c-8 -13 3 -30 18 -29 9 0 9 2 0 6 -22 8 -14 25 8 18 15 -5
19 -4 15 4 -9 14 -33 14 -41 1z"/>
<path d="M2540 316 c0 -10 8 -16 22 -16 12 0 19 1 17 3 -2 1 -12 9 -21 16 -15
12 -18 11 -18 -3z"/>
<path d="M3050 323 c8 -3 21 -10 28 -16 9 -7 11 -6 6 7 -3 9 -16 16 -28 15
-14 0 -16 -2 -6 -6z"/>
<path d="M3147 313 c3 -7 6 -13 8 -13 2 0 5 6 8 13 3 8 -1 14 -8 14 -7 0 -11
-6 -8 -14z"/>
<path d="M3203 323 c9 -2 23 -2 30 0 6 3 -1 5 -18 5 -16 0 -22 -2 -12 -5z"/>
<path d="M90 311 c0 -6 4 -13 10 -16 6 -3 7 1 4 9 -7 18 -14 21 -14 7z"/>
<path d="M2940 310 c-9 -6 -10 -10 -3 -10 6 0 15 5 18 10 8 12 4 12 -15 0z"/>
<path d="M2348 303 c7 -3 16 -2 19 1 4 3 -2 6 -13 5 -11 0 -14 -3 -6 -6z"/>
<path d="M2398 303 c7 -3 16 -2 19 1 4 3 -2 6 -13 5 -11 0 -14 -3 -6 -6z"/>
<path d="M3258 303 c7 -3 16 -2 19 1 4 3 -2 6 -13 5 -11 0 -14 -3 -6 -6z"/>
<path d="M3298 303 c7 -3 16 -2 19 1 4 3 -2 6 -13 5 -11 0 -14 -3 -6 -6z"/>
<path d="M3338 303 c7 -3 16 -2 19 1 4 3 -2 6 -13 5 -11 0 -14 -3 -6 -6z"/>
<path d="M711 106 c-21 -12 -22 -14 -5 -20 10 -4 15 -4 11 0 -4 4 1 13 11 20
22 17 14 17 -17 0z"/>
<path d="M558 53 c6 -2 18 -2 25 0 6 3 1 5 -13 5 -14 0 -19 -2 -12 -5z"/>
</g>
</svg>
