<svg width="99" height="27" viewBox="0 0 99 27" fill="none" xmlns="http://www.w3.org/2000/svg">
<g clip-path="url(#clip0_13_6)">
<g clip-path="url(#clip1_13_6)">
<mask id="mask0_13_6" style="mask-type:luminance" maskUnits="userSpaceOnUse" x="1" y="0" width="97" height="26">
<path d="M1.10662 0.816406H97.1457V25.97H1.10547L1.10662 0.816406Z" fill="white"/>
</mask>
<g mask="url(#mask0_13_6)">
<path d="M10.3521 3.15983H12.456C13.7372 2.97127 15.0455 3.13735 16.2389 3.64003C17.7362 4.54112 18.8222 5.99157 19.2652 7.68201C19.5796 8.56756 19.5796 8.56757 20.3362 8.25319H20.9269V1.24018H1.12466V2.47696H1.93651C2.28925 2.47456 2.63804 2.5512 2.95728 2.70125C3.27651 2.85131 3.55809 3.07096 3.78131 3.34408C4.53904 4.56243 4.66802 5.92819 4.66802 13.0333C4.66802 20.5818 4.50104 22.4266 3.78131 23.3686C3.60362 23.6105 3.37359 23.8091 3.10839 23.9497C2.8432 24.0903 2.54968 24.1692 2.24974 24.1804C1.12466 24.3831 1.12466 24.3647 1.12466 24.8633C1.06261 25.0297 1.06261 25.2128 1.12466 25.3792H13.6191C13.7017 25.2163 13.7447 25.0362 13.7447 24.8535C13.7447 24.6709 13.7017 24.4908 13.6191 24.3278C13.3162 24.2437 13.0075 24.1821 12.6955 24.1436C12.3585 24.1032 12.0253 24.035 11.6994 23.9398C11.2326 23.5989 10.8628 23.1422 10.6265 22.6147C10.3902 22.0872 10.2956 21.5071 10.3521 20.9319C10.1679 19.7135 10.0757 17.4806 10.0757 15.6347V14.178H10.8127C11.7325 14.1496 12.6517 14.2488 13.5443 14.4728C13.9716 14.737 14.3354 15.0923 14.6097 15.5133C14.884 15.9343 15.062 16.4106 15.1311 16.9083L15.2981 17.4806H16.4232V9.30456H15.3902L15.2244 10.0991C15.1543 10.6082 14.9658 11.0938 14.674 11.5168C14.3822 11.9398 13.9953 12.2884 13.5443 12.5347C13.1078 12.6648 12.6472 12.6959 12.1969 12.6268H10.0746V10.6358C10.0746 8.56872 10.1851 4.21351 10.2588 3.53064L10.351 3.16098L10.3521 3.15983ZM96.7204 17.795C95.8482 16.3911 94.4877 15.3592 92.9007 14.8977C91.6837 14.5172 90.5587 13.8887 89.5968 13.0517C89.3806 12.8423 89.2189 12.5832 89.1258 12.297C89.0327 12.0108 89.0109 11.7062 89.0625 11.4096C89.0625 10.8269 89.2963 10.2696 89.7074 9.85847C89.9869 9.56586 90.3407 9.35472 90.731 9.24762C91.1212 9.14053 91.5332 9.1415 91.923 9.25044C92.7296 9.48054 93.459 9.9245 94.0339 10.5353C94.6089 11.1461 95.0079 11.901 95.1888 12.7201C95.4847 13.5492 95.5216 13.5492 96.0559 13.3281L96.3887 13.1991V8.60441L96.148 8.49387C94.3312 7.85539 92.404 7.59137 90.4824 7.71771C88.8275 7.76022 87.2481 8.41891 86.0535 9.56482C85.5116 10.0722 85.0871 10.692 84.8098 11.3806C84.5326 12.0693 84.4091 12.8102 84.4482 13.5515C84.4597 14.6847 84.9088 15.7694 85.7034 16.5778C86.5809 17.4415 87.6587 18.0749 88.8402 18.4226C91.7007 19.5489 92.531 20.2686 92.531 21.5791C92.5435 22.1317 92.3678 22.6721 92.0325 23.1116C91.6972 23.551 91.2225 23.8634 90.6862 23.9973C90.0417 24.1389 89.3742 24.1389 88.7297 23.9973C87.886 23.6698 87.1326 23.1455 86.5323 22.4681C85.9321 21.7907 85.5022 20.9798 85.2785 20.1028L85.0389 19.512H84.7061C84.5484 19.5235 84.3918 19.5615 84.2455 19.6226H84.0613V24.8645H84.3745C85.6216 25.279 86.9079 25.5635 88.2126 25.7132H90.0586C90.8588 25.772 91.6632 25.6972 92.4389 25.4921C93.4238 25.3102 94.3441 24.8738 95.1081 24.2261C95.8722 23.5784 96.4534 22.7421 96.7941 21.8002C97.0152 21.2739 97.128 20.7096 97.1269 20.1396C97.1994 19.3363 97.0592 18.5281 96.7204 17.7962V17.795ZM79.3364 8.25204C78.2305 7.78766 77.0389 7.56236 75.8398 7.59094C74.6407 7.61952 73.4612 7.90132 72.3787 8.41786C71.3612 8.91558 70.4594 9.62109 69.7315 10.4889C69.0035 11.3567 68.4656 12.3674 68.1524 13.4559C67.7531 14.6437 67.5838 15.8967 67.6538 17.1478C67.6409 17.8285 67.6969 18.5087 67.8208 19.1781C68.1188 20.8238 68.9133 22.3389 70.0975 23.5199C71.2818 24.7009 72.7992 25.4912 74.4457 25.7846C75.5182 25.9197 76.6034 25.9197 77.6759 25.7846C78.7884 25.5883 79.8532 25.181 80.8127 24.5846C81.6066 24.1399 82.2786 23.5062 82.7692 22.7398C82.7377 22.6195 82.6822 22.5067 82.606 22.4084C82.5298 22.31 82.4345 22.2281 82.3259 22.1675C82.1152 22.2436 81.9163 22.3491 81.7351 22.4807C80.8173 23.0855 79.7335 23.3887 78.6351 23.3479C77.9059 23.3972 77.1748 23.2837 76.4948 23.0156C75.8149 22.7475 75.203 22.3316 74.7037 21.7979C74.3176 21.439 73.999 21.0139 73.7628 20.5427C73.1895 19.3954 72.8806 18.1342 72.8589 16.8519V16.1322H83.0824V15.7637C83.1055 15.3952 83.1055 15.0244 83.0824 14.6559C83.0786 13.353 82.7301 12.0743 82.0721 10.9498C81.4142 9.82524 80.4703 8.89372 79.3364 8.25204ZM74.1878 14.6374H72.8957V13.5492C73.3195 10.7624 74.372 9.10074 75.6641 9.10074C76.955 9.10074 77.5089 10.744 77.7484 13.7519V14.6006H76.6429L74.1878 14.6374ZM47.6489 7.64401C47.0114 7.61958 46.3777 7.75289 45.8041 8.03209C44.5568 8.63785 43.5494 9.64529 42.9436 10.8926L42.7029 11.3359V7.64401H42.6108C42.3897 7.64401 35.561 9.00976 35.3399 9.10189C35.1188 9.19401 35.1925 9.21359 35.1925 9.54524C35.1925 9.87689 35.1925 9.93332 35.3399 9.95174L36.0596 10.0991C36.2611 10.1042 36.4588 10.1551 36.6378 10.2478C36.8167 10.3406 36.9722 10.4729 37.0925 10.6346C37.5543 11.2426 37.6464 12.3136 37.6464 16.8715C37.7386 18.9236 37.651 20.9802 37.3885 23.0174C37.3265 23.3246 37.1706 23.605 36.9425 23.8199C36.7144 24.0348 36.4252 24.1737 36.1149 24.2173L35.4873 24.3463H35.2477V24.8633C35.1809 25.0351 35.1809 25.2258 35.2477 25.3976H45.5634V24.8633C45.5992 24.6866 45.5992 24.5045 45.5634 24.3278C44.9425 24.3037 44.3251 24.2236 43.7186 24.0883C43.388 23.9156 43.1174 23.6468 42.9427 23.3173C42.7679 22.9877 42.6972 22.6129 42.7398 22.2424C42.5924 21.1714 42.5187 18.0345 42.5555 15.6358C42.5924 13.236 42.5555 13.0886 42.7582 12.9228C43.3757 12.4492 44.1399 12.2075 44.9174 12.2399C45.6503 12.256 46.3699 12.4391 47.0213 12.7754C47.2481 12.8997 47.49 12.9942 47.741 13.0517C47.741 13.0517 49.587 8.58599 49.587 8.38216C49.3506 8.10789 49.0497 7.89687 48.7113 7.76819C48.3729 7.6395 48.0077 7.59607 47.6489 7.64401ZM35.212 15.3952C35.1475 14.0764 34.7688 12.7921 34.1074 11.6493C33.446 10.5065 32.521 9.53836 31.4096 8.82551C30.0889 8.11319 28.6196 7.72047 27.1197 7.67887C25.6198 7.63727 24.131 7.94796 22.7729 8.58599C20.8527 9.59832 19.4027 11.3193 18.7309 13.3834C18.0373 15.6947 18.0373 18.1588 18.7309 20.4701C19.0945 21.7334 19.7742 22.8832 20.7058 23.8108C21.8658 24.9428 23.3617 25.6681 24.9689 25.8778C26.0007 25.9642 27.0382 25.9642 28.07 25.8778C28.4501 25.8203 28.8255 25.7396 29.1951 25.6383C30.6976 25.2182 32.0493 24.3789 33.0921 23.2185C34.1348 22.058 34.8254 20.6246 35.0831 19.0859C35.2673 17.8653 35.3099 16.6262 35.212 15.3952ZM27.5346 24.6226C25.6886 25.1765 24.3044 23.387 23.8438 19.6214C23.6744 17.6505 23.6744 15.6687 23.8438 13.6978C24.2123 10.6715 25.1543 9.13874 26.6122 9.13874C26.9063 9.12059 27.2005 9.17311 27.4701 9.29191C27.7398 9.41071 27.9771 9.59234 28.1622 9.82162C29.3978 11.0584 30.007 13.5135 30.007 17.2031C30.1607 19.2921 29.8325 21.3885 29.0477 23.3306C28.7023 23.8972 28.1645 24.3221 27.5346 24.5305V24.6226ZM60.7525 8.01366C60.2318 7.94668 59.7047 7.94668 59.1841 8.01366C58.1834 8.01366 57.1953 8.2267 56.2856 8.64126L55.7144 8.88079V4.87566C55.8143 3.52442 55.8143 2.16765 55.7144 0.816406C55.4922 0.816406 48.4423 2.16373 48.3329 2.21901C48.2786 2.35504 48.2786 2.50675 48.3329 2.64278C48.3329 3.03086 48.3329 3.01128 49.162 3.19668C49.3958 3.24966 49.6192 3.33602 49.8265 3.45463C50.1869 3.79434 50.4265 4.24115 50.5094 4.72826C50.7201 6.13316 50.788 7.55534 50.7132 8.97291V25.1765L51.2107 25.2871C51.9488 25.4529 54.0343 25.8041 54.7172 25.8778C56.0808 25.9863 57.4508 25.9863 58.8144 25.8778C60.3279 25.7234 61.7706 25.1589 62.9869 24.2451C64.2032 23.3314 65.1471 22.103 65.7169 20.6924C66.0566 19.7861 66.2915 18.8452 66.4182 17.8871C66.5278 16.5883 66.4841 15.2812 66.2881 13.9926C66.09 12.5485 65.4527 11.2003 64.4625 10.1308C63.4722 9.06125 62.177 8.32213 60.7525 8.01366ZM55.9159 24.3083C55.9159 24.0699 55.7317 15.9859 55.7697 12.7569V10.2281L56.304 10.0991C56.6656 10.0473 57.0318 10.0473 57.3934 10.0991C57.793 10.0588 58.1949 10.1487 58.5381 10.3571C59.2273 10.8327 59.7996 11.4585 60.2119 12.1874C60.6242 12.9162 60.8658 13.7291 60.9183 14.5649C61.0529 15.9089 61.0529 17.2629 60.9183 18.6069C60.8077 20.5604 60.0547 22.4227 58.7764 23.9041C58.4148 24.2472 57.9588 24.4787 57.4671 24.5674C57.0949 24.632 56.7143 24.632 56.342 24.5674C55.9908 24.5674 55.9908 24.4568 55.9908 24.3094H55.9171L55.9159 24.3083Z" fill="#33629A"/>
</g>
</g>
</g>
<defs>
<clipPath id="clip0_13_6">
<rect width="97.8827" height="25.3343" fill="white" transform="translate(0.365723 0.755859)"/>
</clipPath>
<clipPath id="clip1_13_6">
<rect width="97.8827" height="25.3343" fill="white" transform="translate(0.365723 0.755859)"/>
</clipPath>
</defs>
</svg>
