<svg width="104" height="27" viewBox="0 0 104 27" fill="none" xmlns="http://www.w3.org/2000/svg">
<g opacity="0.6" clip-path="url(#clip0_13_43)">
<g clip-path="url(#clip1_13_43)">
<mask id="mask0_13_43" style="mask-type:luminance" maskUnits="userSpaceOnUse" x="1" y="0" width="103" height="26">
<path d="M1.04395 0.816406H103.664V25.97H1.04395V0.816406Z" fill="white"/>
</mask>
<g mask="url(#mask0_13_43)">
<path d="M2.49508 1.59961C2.30521 1.59992 2.1232 1.67548 1.98894 1.80974C1.85467 1.944 1.77911 2.12601 1.77881 2.31588V12.0155C1.77881 12.4093 2.10125 12.7318 2.49508 12.7318H12.1947C12.5885 12.7318 12.911 12.4093 12.911 12.0155V2.29861C12.907 2.11146 12.8298 1.93334 12.6958 1.8026C12.5618 1.67186 12.3819 1.59897 12.1947 1.59961H2.49508ZM7.34546 3.1047C8.26787 3.10676 9.16247 3.42079 9.88378 3.99575C10.6051 4.5707 11.1107 5.37276 11.3183 6.2715C11.3897 6.55939 11.4254 6.84497 11.4254 7.14899V7.18469C11.4228 7.76027 11.2987 8.32881 11.0611 8.8531C10.8236 9.37739 10.478 9.84561 10.047 10.2271C9.30922 10.9015 8.34383 11.2721 7.3443 11.2647C6.64963 11.2606 5.96707 11.0824 5.35901 10.7465C5.10202 10.6 4.86183 10.4258 4.64274 10.2271C4.21272 9.84563 3.86898 9.37684 3.63446 8.85201C3.39995 8.32718 3.28004 7.75837 3.28275 7.18353V7.14784C3.28275 6.84382 3.31729 6.55708 3.38984 6.27035C3.59093 5.37143 4.09236 4.56788 4.81144 3.99219C5.53052 3.41651 6.42432 3.10422 7.34546 3.1047ZM7.34546 3.98104C5.98431 3.98104 4.83966 4.82168 4.37443 6.02161C4.36202 6.04854 4.35662 6.07818 4.35871 6.10776C4.36081 6.13734 4.37033 6.16591 4.38641 6.19083C4.40249 6.21575 4.42459 6.23621 4.45068 6.25031C4.47677 6.26441 4.50599 6.2717 4.53565 6.2715H10.1553C10.1849 6.2717 10.2141 6.26441 10.2402 6.25031C10.2663 6.23621 10.2884 6.21575 10.3045 6.19083C10.3206 6.16591 10.3301 6.13734 10.3322 6.10776C10.3343 6.07818 10.3289 6.04854 10.3165 6.02161C10.0844 5.42146 9.67652 4.90541 9.14616 4.54108C8.6158 4.17676 7.98774 3.98115 7.3443 3.97989L7.34546 3.98104ZM4.33873 7.13056V7.14784C4.29128 7.14783 4.24576 7.1666 4.21211 7.20004C4.17845 7.23349 4.15939 7.27888 4.15909 7.32633C4.19594 8.0783 4.49995 8.77729 4.98245 9.2955C5.05385 9.38532 5.19779 9.36689 5.26919 9.27707L5.78739 8.50783L5.28646 7.13056H4.33873ZM9.4033 7.14784L8.90237 8.52625L9.42057 9.2955C9.49197 9.38532 9.61749 9.40259 9.70846 9.31277C10.2092 8.76891 10.5005 8.06496 10.5307 7.32633C10.5479 7.23766 10.4593 7.14784 10.3522 7.14784H9.4033ZM6.53936 8.99033L5.96704 9.83212C5.91291 9.92195 5.93134 10.0475 6.03843 10.1004C6.43227 10.2801 6.87907 10.3872 7.34546 10.3872C7.81069 10.3872 8.25749 10.2801 8.65133 10.1004C8.75842 10.0475 8.77685 9.92195 8.72272 9.83212L8.16767 8.99149L6.53936 8.99033Z" fill="#0F7EC2"/>
<path d="M15.0403 14.126C14.8507 14.1269 14.6692 14.2027 14.5352 14.3368C14.4013 14.471 14.3258 14.6527 14.3252 14.8422V24.5418C14.3252 24.9357 14.6476 25.2581 15.0415 25.2581H24.7411C25.1349 25.2581 25.4573 24.9357 25.4573 24.5418V14.8422C25.457 14.6524 25.3815 14.4704 25.2472 14.3361C25.113 14.2018 24.9309 14.1263 24.7411 14.126H15.0403ZM19.9091 15.2004C19.9264 15.2004 19.9621 15.2177 19.9621 15.2349L20.9824 18.404H24.3104C24.3645 18.404 24.4002 18.4754 24.3472 18.5111L21.6629 20.4619L22.6832 23.6287C22.7005 23.6655 22.6648 23.7185 22.6291 23.7185C22.6107 23.7185 22.6118 23.7185 22.5934 23.7012L19.9091 21.7505L17.2248 23.7012C17.2064 23.7012 17.2064 23.7185 17.1891 23.7185C17.1523 23.7185 17.1166 23.6828 17.135 23.6287L18.1553 20.4619L15.471 18.5111C15.4169 18.4754 15.4526 18.404 15.5055 18.404H18.8347L19.855 15.2361C19.8734 15.2004 19.8907 15.2004 19.9091 15.2004ZM19.8907 17.8133L19.6224 18.6723L19.4266 19.2619H17.9042L18.6378 19.7813L19.1387 20.1567L18.943 20.7475L18.6746 21.5881L19.3898 21.0699L19.8907 20.6945L20.3916 21.0699L21.1252 21.5881L20.8396 20.7475L20.6427 20.1567L21.1436 19.7813L21.8771 19.2631H20.3559L20.1774 18.6723L19.8907 17.8133Z" fill="#A0A09F"/>
<path d="M15.0229 1.59961C14.8331 1.60022 14.6513 1.67588 14.5171 1.81007C14.3829 1.94427 14.3072 2.1261 14.3066 2.31588V12.0155C14.3251 12.4093 14.6475 12.7318 15.0229 12.7318H24.7225C25.1163 12.7318 25.4388 12.4093 25.4388 12.0155V2.31588C25.4382 2.1261 25.3625 1.94427 25.2283 1.81007C25.0941 1.67588 24.9123 1.60022 24.7225 1.59961H15.0229ZM20.3558 2.9239C20.5829 2.93213 20.7979 3.02813 20.9556 3.19168C21.1134 3.35523 21.2015 3.5736 21.2015 3.80082C21.2015 4.02804 21.1134 4.2464 20.9556 4.40996C20.7979 4.57351 20.5829 4.6695 20.3558 4.67773C20.2577 4.67916 20.1602 4.66116 20.0691 4.62476C19.9977 4.58906 19.9078 4.55221 19.8549 4.49809C19.7085 4.38974 19.5998 4.23834 19.5437 4.06509C19.4877 3.89184 19.4873 3.70541 19.5425 3.53191C19.5977 3.3584 19.7058 3.2065 19.8517 3.09748C19.9975 2.98846 20.1738 2.92777 20.3558 2.9239ZM19.5819 4.78943C19.7685 4.79059 19.9504 4.84356 20.1059 4.96447C20.2671 5.10726 20.3742 5.28691 20.4629 5.48267C20.5711 5.75214 20.7139 6.093 20.821 6.36016C20.821 6.36016 20.821 6.37859 20.8394 6.37859L20.8924 6.43156L20.9281 6.44999L22.181 7.04074L21.8586 7.82725C21.8586 7.82725 21.5189 7.70288 21.4832 7.68446C21.2321 7.57736 21.1976 7.59579 20.9465 7.48869C20.8038 7.43457 20.821 7.41615 20.6782 7.36202C20.6241 7.34475 20.5884 7.30905 20.5354 7.30905C20.3915 7.25493 20.213 7.12941 19.9977 6.57551C19.9977 6.59278 19.514 7.95277 19.514 7.95277C19.514 8.13242 19.5324 8.70474 19.5681 9.0813C19.5681 9.18725 19.5866 9.29549 19.5866 9.34846C19.6038 9.68933 19.4967 9.81485 19.2641 10.029C18.8165 10.4521 18.375 10.8817 17.9398 11.3176L17.2604 10.7453L18.5663 9.34846C18.5663 9.34846 18.4235 8.50783 18.405 8.418C18.3521 8.04259 18.298 7.8998 18.3337 7.63149C18.3337 7.61306 18.3337 7.57736 18.3509 7.55894L18.6204 6.43156C18.5121 6.52138 18.3693 6.6112 18.2081 6.77242C17.9755 6.98661 17.3675 7.79155 17.3675 7.79155L16.7226 7.36202C16.7226 7.29063 17.0808 6.80812 17.1706 6.6826C17.4032 6.37859 17.6715 6.09185 17.9398 5.84196C18.101 5.68074 18.4764 5.32261 18.7091 5.12569C18.944 4.92417 19.2699 4.78598 19.5819 4.78943ZM19.7662 7.73743L22.0025 11.2992H21.0179L19.7478 9.40374L19.6936 7.97235C19.7121 7.91823 19.7293 7.8284 19.765 7.73973L19.7662 7.73743Z" fill="#FFCA0F"/>
<path d="M2.49508 14.126C2.3053 14.1266 2.12347 14.2022 1.98927 14.3364C1.85507 14.4706 1.77942 14.6525 1.77881 14.8422V24.5418C1.77881 24.9357 2.10125 25.2581 2.49508 25.2581H12.1947C12.5885 25.2581 12.911 24.9357 12.911 24.5418V14.8422C12.9103 14.6525 12.8347 14.4706 12.7005 14.3364C12.5663 14.2022 12.3845 14.1266 12.1947 14.126H2.49508ZM5.82309 16.5247H6.11098L3.99902 22.8594H3.22862L5.82424 16.5247H5.82309ZM6.36087 16.5247H7.18424L7.16581 17.0429H7.50552L7.48825 16.5247H8.31162L9.97562 22.8594H7.73929L7.72086 22.3412H6.95162L6.9332 22.8594H4.69686L6.36087 16.5247ZM8.57993 16.5247H8.86552L11.4611 22.8594H10.6919L8.57993 16.5247ZM7.13011 17.849L7.07599 19.2988H7.59534L7.54122 17.8478L7.13011 17.849ZM7.04029 20.0853L6.98732 21.5535H7.68517L7.63104 20.0853H7.04029Z" fill="#BF1E2E"/>
<path d="M79.2851 1.52637C77.6753 1.52637 76.0654 1.97548 74.8482 2.86909C73.631 3.765 72.8076 5.12384 72.8076 6.9318V7.05847C72.826 8.90097 73.4525 10.1539 74.543 10.9772C75.6347 11.7994 77.157 12.1749 78.9823 12.3015C79.6087 12.3361 80.1983 12.3902 80.682 12.4973C81.1656 12.6055 81.541 12.7656 81.738 13.0166C81.8807 13.1779 81.9522 13.3932 81.9522 13.6615C81.9522 14.1083 81.6666 14.4308 81.2013 14.6807C80.7361 14.9133 80.1096 15.0388 79.4648 15.0388C78.8199 15.0388 78.1578 14.9144 77.6925 14.6634C77.2089 14.4123 76.906 14.0012 76.906 13.5003V13.4462H72.575V13.6074C72.575 15.4683 73.434 16.864 74.7226 17.7588C76.0112 18.672 77.7109 19.1199 79.4118 19.1199C81.1299 19.1199 82.8653 18.6708 84.1539 17.7588C85.4598 16.8467 86.3373 15.4867 86.3373 13.6788C86.3373 11.5484 85.4967 10.3508 84.2438 9.67021C82.9909 8.97236 81.3257 8.79272 79.6605 8.5958C79.1251 8.54283 78.6057 8.47143 78.1946 8.34591C77.7823 8.22039 77.4611 8.0419 77.2814 7.79086C77.1478 7.6029 77.0791 7.37651 77.0856 7.14599V7.02162C77.1202 6.55639 77.4069 6.19825 77.8537 5.94721C78.2833 5.69732 78.874 5.55453 79.4291 5.55453C79.9841 5.55453 80.5208 5.6789 80.8962 5.92994C81.29 6.17983 81.541 6.55639 81.541 7.05847V7.14714H85.7995V6.96749C85.7995 5.15954 84.9773 3.78228 83.7601 2.88751C82.5429 1.97432 80.9146 1.52637 79.2851 1.52637ZM93.3169 1.68759L85.765 18.0628V18.6731H89.952L90.9366 16.56H97.5581L98.5427 18.672H102.73V18.0455L95.1606 1.68874L93.3169 1.68759ZM28.6567 1.72444V18.7791H33.2745V10.6548L41.5784 18.7618L41.5968 18.7963H43.2781V1.79698H38.6972V9.88555L30.3403 1.72444H28.6567ZM44.478 1.79583V18.7791H49.059V12.0321H54.0337V18.7802H58.6158V1.79468H54.0348V7.89796H49.0601V1.79468H44.4769L44.478 1.79583ZM59.6003 1.79583V5.82284H63.7344V18.7791H68.1541V5.82284H72.2537V1.79583H59.6003ZM94.2289 8.61423L94.3188 8.80999L96.1613 12.8025H92.368L94.2289 8.61423Z" fill="#0F7EC2"/>
<path d="M46.9656 23.4498C46.5361 23.4498 46.0881 23.7366 46.0881 24.3273C46.0881 24.9169 46.5372 25.2037 46.9656 25.2037C47.288 25.2037 47.6105 25.0609 47.7348 24.7027C47.789 24.5415 47.789 24.3803 47.789 24.2018H46.9829V24.5956H47.341C47.2696 24.7568 47.1452 24.8098 46.9656 24.8098C46.6973 24.8098 46.5361 24.6313 46.5361 24.3446C46.5361 24.0763 46.6789 23.8609 46.9656 23.8609C47.1441 23.8609 47.2523 23.9151 47.3226 24.0579H47.7533C47.6635 23.6283 47.3053 23.4498 46.9656 23.4498ZM66.8657 23.4498C66.4362 23.4498 65.9894 23.7366 65.9894 24.3273C65.9894 24.9169 66.4362 25.2037 66.8657 25.2037C67.2239 25.2037 67.6177 25.0079 67.6718 24.5242H67.2423C67.2238 24.6089 67.1757 24.6841 67.1067 24.7365C67.0377 24.7888 66.9522 24.8148 66.8657 24.8098C66.6158 24.8098 66.4362 24.5956 66.4362 24.3262C66.4362 24.0406 66.5974 23.8425 66.8657 23.8425C67.0454 23.8425 67.1882 23.9151 67.2423 24.0936H67.6718C67.5993 23.6283 67.2239 23.4498 66.8657 23.4498ZM69.4878 23.4544C69.1573 23.4544 68.8257 23.6387 68.8349 24.0049C68.8349 24.3803 69.0848 24.5058 69.4614 24.5231C69.6398 24.5415 69.7654 24.5599 69.7654 24.6843C69.7654 24.8812 69.2287 24.8812 69.2287 24.667H68.7992C68.7808 25.419 70.1765 25.4006 70.1765 24.6843C70.1949 24.2732 69.854 24.2191 69.5143 24.1834C69.3531 24.1661 69.2287 24.1477 69.246 24.0049C69.2644 23.808 69.7297 23.7895 69.7297 24.0049H70.1408C70.15 23.6375 69.8183 23.4544 69.4878 23.4544ZM90.3196 23.4544C89.9879 23.4544 89.6563 23.6387 89.6655 24.0049C89.6655 24.3803 89.9165 24.5058 90.292 24.5231C90.4716 24.5415 90.6144 24.5599 90.6144 24.6843C90.6144 24.8812 90.0778 24.8812 90.0778 24.667H89.6482C89.6298 25.419 91.0255 25.4006 91.0255 24.6843C91.0255 24.2732 90.6858 24.2191 90.3461 24.1834C90.1849 24.1661 90.0593 24.1477 90.0778 24.0049C90.095 23.808 90.5614 23.7895 90.5614 24.0049H90.9725C90.9817 23.6375 90.6501 23.4544 90.3196 23.4544ZM35.7448 23.459C35.3072 23.459 34.8685 23.7538 34.8685 24.3457C34.8685 25.5261 36.6211 25.5261 36.6211 24.3457C36.6211 23.7538 36.1824 23.459 35.7448 23.459ZM99.9029 23.459C99.4641 23.459 99.0254 23.7538 99.0254 24.3457C99.0254 25.5261 100.779 25.5261 100.779 24.3457C100.779 23.7538 100.342 23.459 99.9029 23.459ZM31.2169 23.4683L30.4476 25.1323V25.2037H30.8771L30.9842 24.9883H31.6637L31.7719 25.2037H32.2014V25.1323L31.431 23.4683H31.2169ZM39.6106 23.4683L38.8402 25.1323V25.2037H39.2697L39.378 24.9883H40.0574L40.1656 25.2037H40.5952V25.1323L39.8248 23.4683H39.6106ZM53.1046 23.4683L52.3342 25.1323V25.2037H52.7637L52.8708 24.9883H53.5514L53.6585 25.2037H54.088V25.1323L53.3188 23.4683H53.1046ZM60.6738 23.4683L59.9045 25.1323V25.2037H60.3341L60.4412 24.9883H61.1206L61.2288 25.2037H61.6584V25.1323L60.8891 23.4683H60.6738ZM71.1795 23.4683L70.4102 25.1323V25.2037H70.8398L70.9469 24.9883H71.6263L71.7345 25.2037H72.1641V25.1323L71.3937 23.4683H71.1795ZM80.1271 23.4683L79.3579 25.1323V25.2037H79.7874L79.8945 24.9883H80.5739L80.6822 25.2037H81.1117V25.1323L80.3425 23.4683H80.1271ZM83.3308 23.4683V25.1852H83.7776V24.4344L84.1357 24.8098H84.1898L84.5468 24.4344V25.1852H84.9959V23.4683H84.8347L84.1541 24.2191L83.492 23.4683H83.3308ZM86.6415 23.4683V25.1852H87.0883V24.3446L87.9658 25.2037H88.1086V23.4867H87.6618V24.3273L86.8027 23.4694L86.6415 23.4683ZM95.3565 23.4683L94.5873 25.1323V25.2037H95.0168L95.1239 24.9883H95.8033L95.9116 25.2037H96.3411V25.1323L95.5719 23.4683H95.3565ZM101.209 23.4683V25.1852H101.657V24.3446L102.516 25.2037H102.677V23.4867H102.229V24.3273L101.37 23.4694L101.209 23.4683ZM28.6581 23.4855V25.2037H29.1049V24.363L29.964 25.2037H30.1252V23.4867H29.6784V24.3273L28.8009 23.4867L28.6581 23.4855ZM32.2187 23.4855V23.8794H32.631V25.2037H33.0789V23.8794H33.49V23.4855H32.2187ZM33.7399 23.4855V23.8621H33.9368V24.8098H33.7226V25.2037H34.5817V24.8098H34.3664V23.8621H34.5633V23.4855H33.7399ZM37.0507 23.4855V25.2037H37.4986V24.363L38.375 25.2037H38.5189V23.4867H38.0709V24.3273L37.2119 23.4867L37.0507 23.4855ZM40.8992 23.4855V25.2037H41.9552V24.8098H41.346V23.4855H40.8992ZM43.1355 23.4855V25.2037H43.5835V24.5058H44.1201V25.2037H44.5681V23.4867H44.1201V24.1131H43.5835V23.4867L43.1355 23.4855ZM44.9792 23.4855V23.8621H45.1761V24.8098H44.9619V25.2037H45.8198V24.8098H45.6056V23.8621H45.8014V23.4855H44.9792ZM48.2358 23.4855V25.2037H48.701V24.5058H49.2204V25.2037H49.6683V23.4867H49.2204V24.1131H48.7022V23.4867L48.2358 23.4855ZM50.0265 23.4855V23.5569L50.6345 25.2221H50.8671L51.1354 24.3987H51.1538L51.4221 25.2221H51.672L52.2812 23.5569V23.4855H51.8333L51.6191 24.1304L51.5465 24.416H51.5292L51.2425 23.504H51.064L50.7773 24.416H50.76L50.6886 24.1304L50.4733 23.4855H50.0265ZM54.0707 23.4855V23.5569L54.6431 24.4701V25.2037H55.0726V24.4701L55.6449 23.5569V23.4855H55.1797L54.8573 24.0579H54.84L54.536 23.4855H54.0707ZM56.5938 23.4855V23.8794H57.0049V25.2037H57.4344V23.8794H57.864V23.4855H56.5938ZM58.2221 23.4855V25.2037H58.6516V24.7027H58.8843L59.171 25.2037H59.6547V25.1323L59.3138 24.5956C59.779 24.2916 59.6535 23.4855 58.9741 23.4855H58.2221ZM61.9624 23.4855V25.2037H62.4103V24.6486H62.9654V24.2548H62.4103V23.8794H63.0368V23.4855H61.9624ZM63.4663 23.4855V25.2037H63.9131V24.6486H64.4682V24.2548H63.9131V23.8794H64.5396V23.4855H63.4663ZM64.8436 23.4855V23.8621H65.0405V24.8098H64.8263V25.2037H65.7027V24.8098H65.47V23.8621H65.6854V23.4855H64.8436ZM72.4669 23.4855V25.1852H72.916V24.6313H73.4688V24.2548H72.916V23.8794H73.5413V23.4855H72.4669ZM73.9709 23.4855V25.1852H75.0626V24.8098H74.4004V24.5058H74.9912V24.112H74.4004V23.8794H75.0453V23.4855H73.9709ZM75.3666 23.4855V23.8794H75.7961V25.1852H76.2256V23.8794H76.6379V23.4855H75.3666ZM76.8705 23.4855V23.5396L77.4428 24.4701V25.1852H77.8908V24.4701L78.4631 23.5396V23.4855H77.9795L77.6754 24.0579H77.657L77.353 23.4855H76.8705ZM81.4157 23.4855V25.2037H82.0606C83.1695 25.1864 83.1695 23.4855 82.0606 23.4855H81.4157ZM85.407 23.4855V23.8621H85.6028V24.8098H85.3886V25.1852H86.2649V24.8098H86.0335V23.8621H86.2477V23.4855H85.407ZM88.5208 23.4855V23.8621H88.7166V24.8098H88.5024V25.1852H89.3799V24.8098H89.1646V23.8621H89.3615V23.4855H88.5208ZM91.2765 23.4855V23.8794H91.7061V25.1852H92.1356V23.8794H92.5467V23.4855H91.2765ZM92.9233 23.4855V25.2037H93.3528V24.7027H93.5854L93.871 25.2037H94.3547V25.1323L94.015 24.5956C94.4618 24.2916 94.3374 23.4855 93.6752 23.4855H92.9233ZM96.3595 23.4855V23.8794H96.7891V25.1852H97.2186V23.8794H97.647V23.4855H96.3595ZM97.8796 23.4855V23.8621H98.0949V24.8098H97.8623V25.1852H98.7398V24.8098H98.5245V23.8621H98.7202V23.4855H97.8796ZM58.6516 23.8794H58.9741C59.224 23.8794 59.224 24.3089 58.9741 24.3089H58.6516V23.8794ZM81.8452 23.8794H82.0606C82.5972 23.8794 82.5972 24.7925 82.0606 24.7925H81.8452V23.8794ZM93.3528 23.8794H93.6752C93.9251 23.8794 93.9079 24.3089 93.6752 24.3089H93.3528V23.8794ZM35.7448 23.8886C35.9601 23.8886 36.1743 24.0406 36.1743 24.3446C36.1664 24.4531 36.1177 24.5545 36.038 24.6286C35.9583 24.7026 35.8536 24.7438 35.7448 24.7438C35.636 24.7438 35.5313 24.7026 35.4516 24.6286C35.3719 24.5545 35.3232 24.4531 35.3153 24.3446C35.3153 24.0406 35.5306 23.8886 35.7448 23.8886ZM99.9029 23.8886C100.117 23.8886 100.332 24.0406 100.332 24.3446C100.332 24.9526 99.4734 24.9526 99.4734 24.3446C99.4734 24.0406 99.6875 23.8886 99.9029 23.8886ZM31.3067 24.1649L31.5024 24.6141H31.1098L31.3067 24.1649ZM39.7177 24.1649L39.9134 24.6141H39.5219L39.7177 24.1649ZM53.2117 24.1649L53.4074 24.6141H53.0148L53.2117 24.1649ZM60.7636 24.1649L60.9594 24.6141H60.5667L60.7636 24.1649ZM71.2866 24.1649L71.4823 24.6141H71.0908L71.2866 24.1649ZM80.2169 24.1649L80.4127 24.6141H80.02L80.2169 24.1649ZM95.4636 24.1649L95.6605 24.6141H95.2678L95.4636 24.1649ZM102.928 20.9268H28.6235V21.392H102.927L102.928 20.9268Z" fill="#BF1E2E"/>
</g>
</g>
</g>
<defs>
<clipPath id="clip0_13_43">
<rect width="103.641" height="25.3343" fill="white" transform="translate(0.0244141 0.755859)"/>
</clipPath>
<clipPath id="clip1_13_43">
<rect width="103.641" height="25.3343" fill="white" transform="translate(0.0244141 0.755859)"/>
</clipPath>
</defs>
</svg>
