<svg width="74" height="30" viewBox="0 0 74 30" fill="none" xmlns="http://www.w3.org/2000/svg">
<g opacity="0.6" clip-path="url(#clip0_13_13)">
<g clip-path="url(#clip1_13_13)">
<g clip-path="url(#clip2_13_13)">
<mask id="mask0_13_13" style="mask-type:luminance" maskUnits="userSpaceOnUse" x="0" y="1" width="74" height="29">
<path d="M0.810059 1.69043H73.3296V29.1445H0.810059V1.69043Z" fill="white"/>
</mask>
<g mask="url(#mask0_13_13)">
<mask id="mask1_13_13" style="mask-type:alpha" maskUnits="userSpaceOnUse" x="13" y="1" width="61" height="28">
<path d="M13.3799 28.7722H73.2566V1.69336H13.3799V28.7722Z" fill="white"/>
</mask>
<g mask="url(#mask1_13_13)">
<path fill-rule="evenodd" clip-rule="evenodd" d="M72.5194 15.23C68.8843 22.7005 52.8049 28.7821 36.7273 28.7821C20.6334 28.7821 10.4843 22.7005 14.1194 15.23C17.7381 7.78954 33.832 1.69336 49.9114 1.69336C66.0044 1.69336 76.1526 7.78954 72.5194 15.23Z" fill="#032B76"/>
<path fill-rule="evenodd" clip-rule="evenodd" d="M49.5505 1.98145C65.1876 1.98145 75.0285 7.88998 71.4723 15.1138C67.9297 22.3531 52.2791 28.2625 36.6729 28.2625C21.0367 28.2625 11.194 22.3531 14.7357 15.1138C17.0364 10.4572 24.3173 6.37069 33.3778 4.02468C34.0214 3.84973 34.6804 3.70741 35.3394 3.54877C40.0063 2.51686 44.7709 1.99137 49.5505 1.98145Z" fill="#0A0A08"/>
<path fill-rule="evenodd" clip-rule="evenodd" d="M49.3172 2.37493C64.7566 2.37493 74.4942 8.07678 71.0069 15.0378C67.5196 22.0259 52.0938 27.7151 36.668 27.7151C21.2277 27.7151 11.4901 22.0259 14.9783 15.0378C18.452 8.07678 33.8914 2.37402 49.3163 2.37402L49.3172 2.37493Z" fill="#969998"/>
</g>
<path fill-rule="evenodd" clip-rule="evenodd" d="M46.8548 3.56445C60.803 3.56445 69.5833 8.6653 66.4106 14.9011C63.2505 21.1504 49.2887 26.2513 35.3668 26.2513C21.4185 26.2513 12.6382 21.1504 15.7974 14.902C17.8488 10.8808 24.3447 7.35179 32.427 5.3294C33.0008 5.17711 33.5891 5.05473 34.1775 4.91785C38.3445 4.0263 42.5934 3.5727 46.8548 3.56445Z" fill="#0A0A08"/>
<path fill-rule="evenodd" clip-rule="evenodd" d="M64.1211 9.78556C64.791 10.8978 64.9142 12.1488 64.3839 13.4605C63.8881 14.454 63.3188 15.2526 62.4703 16.0395C58.0693 20.106 48.1658 23.1382 38.276 23.1382C26.6148 23.1382 19.2614 18.9239 21.9183 13.7578C23.744 10.2016 29.929 6.96817 37.3378 5.37093C38.208 5.18329 39.0946 5.03553 39.9938 4.90137C38.2718 5.06847 36.5607 5.33268 34.8685 5.69274C26.6556 7.50573 19.691 10.431 17.6641 14.483C14.7262 20.3743 22.871 25.1778 35.8076 25.1778C46.4072 25.1778 57.0223 21.958 62.1213 17.5424C62.7874 16.9663 63.3843 16.3147 63.8999 15.6007C64.1183 15.2989 64.3096 14.9934 64.4701 14.6852C65.382 12.913 65.208 11.235 64.1211 9.78556Z" fill="#0D5DB8"/>
<path fill-rule="evenodd" clip-rule="evenodd" d="M8.89328 13.974C8.64581 14.3619 8.39833 14.6493 8.1563 14.8261L8.14724 14.8342C7.86713 15.0536 7.50181 15.1651 7.05944 15.1651C6.77208 15.1651 6.57447 15.108 6.52008 15.011C6.51373 14.9956 6.3841 14.6393 6.78477 13.3503C7.04947 12.5344 7.35768 11.9507 7.70033 11.6171C8.12639 11.191 8.58507 10.9916 9.14075 10.9916C9.3148 10.9916 9.46075 11.0188 9.54868 11.0668C9.61485 11.1049 9.66652 11.1339 9.68737 11.375L9.76895 12.3151H14.2017C13.9234 12.684 13.685 13.0811 13.4946 13.4971H9.19605L8.89328 13.974ZM19.6407 14.2468C19.4757 14.7735 19.2618 15.156 19.0243 15.3527C18.7813 15.5467 18.5765 15.6338 18.3625 15.6338C18.3321 15.6346 18.3017 15.6322 18.2719 15.6265C18.2628 15.5676 18.2483 15.3618 18.3961 14.8895C18.5375 14.4091 18.7451 14.0447 18.9962 13.8353C19.2264 13.6512 19.4385 13.5697 19.686 13.5697C19.7159 13.5697 19.7377 13.5715 19.7522 13.5733C19.7612 13.6386 19.7676 13.8325 19.6407 14.2468ZM30.2285 14.2368C30.0926 14.7019 29.9085 15.0482 29.7127 15.2131C29.5532 15.3473 29.4181 15.4126 29.2994 15.4126H29.2677C29.2704 15.331 29.2885 15.1678 29.3728 14.8959C29.5559 14.3012 29.7626 14.0456 29.9031 13.935C30.0645 13.8035 30.2041 13.7346 30.35 13.7138C30.3409 13.8126 30.3128 13.9767 30.2313 14.226L30.2285 14.2368ZM61.3802 9.6101L62.5559 5.8418L56.5133 8.34735L56.3591 8.4108L55.9857 9.60919H54.7873L54.7383 9.76601C54.2603 9.54618 53.7406 9.43179 53.2145 9.43061C52.8066 9.43061 52.4195 9.49044 52.0633 9.60919H47.3314L46.4348 12.4701C46.4363 12.3507 46.4333 12.2312 46.4258 12.112C46.3823 11.4911 46.1647 10.9408 45.8112 10.5637C45.3706 10.0606 44.7506 9.737 43.9656 9.60012C43.3854 9.48409 42.5967 9.4297 41.4845 9.4297C40.8345 9.4297 40.2199 9.47412 39.6071 9.56568C38.9137 9.67174 38.4051 9.81224 38.0072 10.0062C37.417 10.2628 36.9284 10.5737 36.5541 10.9309C36.2241 11.2318 35.9231 11.6153 35.634 12.1002C35.5761 11.8007 35.4852 11.5086 35.3629 11.2291C34.9795 10.4078 34.1165 9.4297 32.1811 9.4297C31.7034 9.4297 31.252 9.48953 30.8033 9.61372L30.8051 9.60919H25.6353L24.892 11.986C24.8044 11.7378 24.6907 11.4996 24.553 11.2753C23.7743 10.0516 22.3366 9.4297 20.2789 9.4297C18.591 9.4297 17.088 9.88204 15.8144 10.774C15.582 10.9373 15.3586 11.1131 15.1454 11.3007V11.2853C15.1454 9.53214 14.6686 8.29205 13.6895 7.49343C12.8365 6.76551 11.5783 6.41108 9.84419 6.41108C7.77467 6.41108 5.95261 6.96857 4.42879 8.06996C2.91404 9.17316 1.83622 10.745 1.22615 12.742C0.732109 14.3012 0.676813 15.6401 1.06117 16.7215C1.47362 17.851 2.15531 18.6551 3.08718 19.112C3.92478 19.5317 5.06697 19.7438 6.48019 19.7438C7.65682 19.7438 8.68569 19.5788 9.5378 19.2525C10.4283 18.9227 11.2502 18.4309 11.9618 17.8021C12.3017 17.4948 12.6779 17.0887 13.0206 16.6545C13.1698 17.3349 13.5064 17.9601 13.9923 18.4593C14.8354 19.3023 16.0863 19.7293 17.7144 19.7293C19.4249 19.7293 20.9451 19.2733 22.2323 18.3723C22.5514 18.1484 22.8497 17.9036 23.1207 17.6416L21.5869 22.5421H26.9942L27.9741 19.4311C28.4455 19.6296 28.9894 19.7302 29.5895 19.7302C30.8486 19.7302 32.0261 19.3087 33.0912 18.4765C33.4006 18.2327 33.6854 17.9591 33.9415 17.6598C34.0385 18.0514 34.2298 18.4085 34.5108 18.7204C35.1055 19.4002 36.0383 19.7302 37.3636 19.7302C38.2374 19.7302 39.056 19.5988 39.7984 19.3404C39.9199 19.2978 40.045 19.2489 40.1701 19.1945L40.2879 19.5498H49.6148L50.6682 16.1831C51.1069 14.7898 51.5085 14.2341 51.7079 14.0265C51.9001 13.8543 52.0297 13.8307 52.1403 13.8307C52.153 13.8307 52.2727 13.8344 52.5646 13.9631L53.2916 14.2849L53.6379 13.8679L54.654 13.8706L54.208 15.2974C53.859 16.3599 53.7412 17.1177 53.8382 17.6815C53.9379 18.3705 54.3105 18.9416 54.8852 19.2887C55.3747 19.5897 56.0845 19.7293 57.117 19.7293C57.8694 19.7293 58.7106 19.6396 59.6153 19.4628L60.0549 19.3767L60.2888 19.3313L61.1944 14.8904L59.5745 15.3654L60.0386 13.8715H61.8144L63.1461 9.60919H61.3811L61.3802 9.6101Z" fill="white"/>
<path fill-rule="evenodd" clip-rule="evenodd" d="M9.34603 13.7707L9.12394 14.1206C8.85833 14.5375 8.58729 14.8503 8.31534 15.0497C7.98629 15.3081 7.56386 15.4395 7.05894 15.4395C6.65283 15.4395 6.39086 15.3398 6.27936 15.1413C6.2431 15.0778 6.08265 14.688 6.5223 13.2703C6.8015 12.4091 7.13418 11.7863 7.51038 11.421C7.98175 10.9487 8.51568 10.7185 9.14025 10.7185C9.36688 10.7185 9.54818 10.7557 9.68053 10.8282C9.83644 10.9161 9.93162 11.0303 9.95973 11.3512L10.0186 12.042H14.7832C14.3186 12.552 13.9429 13.1363 13.6718 13.7707H9.34603ZM19.9022 14.3272C19.7172 14.9146 19.4806 15.3307 19.1987 15.5628C18.905 15.7985 18.6394 15.9073 18.3611 15.9073C18.1146 15.9073 18.0638 15.8211 18.0302 15.7631C18.0176 15.7414 17.9088 15.5302 18.1354 14.8077C18.2931 14.2719 18.5234 13.874 18.8198 13.6265C19.1008 13.4017 19.3764 13.2966 19.6855 13.2966C19.913 13.2966 19.9529 13.3636 19.9955 13.438C20.001 13.4452 20.1134 13.6374 19.9022 14.3272ZM29.1112 14.8167C29.2726 14.291 29.4883 13.9121 29.7367 13.7199C29.9742 13.525 30.199 13.4352 30.4438 13.4352C30.5689 13.4352 30.577 13.4498 30.606 13.5032C30.6314 13.5449 30.6632 13.7842 30.49 14.3136C30.3359 14.8376 30.1283 15.221 29.8881 15.4232C29.6769 15.6009 29.4847 15.6861 29.2989 15.6861C29.0759 15.6861 29.0387 15.6244 29.0142 15.5836C29.0133 15.5818 28.9281 15.4096 29.1112 14.8167ZM35.1947 14.6817C35.3053 14.2919 35.3796 13.9112 35.4168 13.5486L36.8518 13.6936C36.3306 13.8713 35.9054 14.0897 35.5628 14.3581C35.4322 14.4578 35.3098 14.5666 35.1947 14.6817ZM61.6118 13.5993L62.7721 9.8836H61.0081L62.1203 6.31836L56.5817 8.61632L56.1864 9.8836H54.988L54.9037 10.1537C54.339 9.85188 53.786 9.70502 53.214 9.70502C52.8188 9.70502 52.448 9.76485 52.1081 9.8836H47.5312L44.8172 18.5533L44.7927 18.3992C44.732 18.0339 44.7256 17.8517 44.731 17.7647C44.7374 17.6722 44.7709 17.4764 44.8924 17.0667L45.9775 13.5921C46.1298 13.1343 46.186 12.6566 46.1515 12.1317C46.1135 11.5706 45.9204 11.0802 45.6085 10.7502C45.2106 10.2933 44.6413 9.99782 43.9197 9.87091C43.3514 9.7576 42.5772 9.70502 41.484 9.70502C40.8467 9.70502 40.2466 9.74763 39.6465 9.83737C38.9784 9.93981 38.4935 10.0731 38.1236 10.2553C37.5589 10.5 37.0947 10.7937 36.743 11.13C36.3695 11.4709 36.0296 11.9277 35.706 12.5269L35.444 13.011C35.444 12.4037 35.3334 11.8434 35.1113 11.3394C34.7632 10.5934 33.9719 9.70502 32.1806 9.70502C31.5561 9.70502 30.9659 9.81562 30.3849 10.0422L30.4329 9.8836H25.8361L24.8262 13.108C24.8053 12.5107 24.6305 11.929 24.3186 11.4192C23.5961 10.2816 22.2364 9.70502 20.2784 9.70502C18.6476 9.70502 17.1981 10.1401 15.9707 10.9995C15.5732 11.2774 15.2048 11.5948 14.8711 11.9468V11.2869C14.8711 9.62072 14.4278 8.44953 13.5177 7.70802C12.7118 7.01999 11.5107 6.6864 9.84369 6.6864C7.83218 6.6864 6.06452 7.22667 4.58875 8.2927C3.12294 9.36056 2.07866 10.8853 1.48763 12.8234C1.01172 14.3263 0.954608 15.6081 1.31902 16.6315C1.70519 17.6903 2.34064 18.4436 3.20634 18.8679C4.00768 19.2685 5.10998 19.4716 6.47969 19.4716C7.62188 19.4716 8.61902 19.3121 9.4394 18.9993C10.3 18.6799 11.0941 18.2041 11.7818 17.5961C12.3178 17.0989 12.7967 16.5434 13.2095 15.9399C13.2273 16.8136 13.5774 17.6476 14.1885 18.2723C14.9754 19.0582 16.162 19.458 17.7148 19.458C19.3673 19.458 20.8349 19.0174 22.075 18.1499C22.7473 17.6855 23.3282 17.101 23.7883 16.4258L21.9581 22.2699H26.7933L27.8059 19.0546C27.8675 19.0854 27.9292 19.1144 27.9917 19.1416C28.4495 19.351 28.987 19.458 29.589 19.458C30.7855 19.458 31.9069 19.0555 32.9221 18.2632C33.3826 17.9015 33.7933 17.4592 34.1477 16.9443C34.1115 17.6921 34.4233 18.217 34.7134 18.5388C35.2546 19.157 36.1221 19.458 37.3631 19.458C38.2061 19.458 38.9947 19.332 39.7082 19.0845C39.9208 19.0083 40.1287 18.9197 40.3309 18.8189L40.485 19.2776H49.4131L50.4057 16.104C50.8426 14.717 51.2524 14.1006 51.5153 13.8323C51.7237 13.6428 51.9168 13.5585 52.1389 13.5585C52.1933 13.5585 52.3547 13.5739 52.6738 13.7144L53.2122 13.9529L53.5086 13.5957L55.0252 13.5993L54.4677 15.3797C54.1323 16.404 54.0172 17.1229 54.106 17.6387C54.1948 18.2487 54.5203 18.7518 55.0243 19.0564C55.4712 19.3302 56.1357 19.458 57.1156 19.458C57.8498 19.458 58.6738 19.3701 59.5613 19.196L60.0562 19.099L60.834 15.2827L59.632 15.6353C59.4598 15.6852 59.3038 15.726 59.1661 15.7559L59.8351 13.5993H61.6118Z" fill="#0A0A08"/>
<path fill-rule="evenodd" clip-rule="evenodd" d="M13.151 14.5266C12.7794 15.3805 11.9653 16.4148 11.2764 17.0348C10.6612 17.5783 9.95099 18.0036 9.18147 18.2894C8.42364 18.5786 7.51352 18.7164 6.48012 18.7164C5.21103 18.7164 4.23292 18.5369 3.54398 18.1924C2.84145 17.848 2.34469 17.2406 2.02832 16.3731C1.72374 15.5183 1.77904 14.4015 2.2069 13.0508C2.75805 11.2469 3.70896 9.86719 5.03245 8.90268C6.36953 7.93817 7.96858 7.44141 9.84321 7.44141C11.3036 7.44141 12.3651 7.71698 13.0268 8.28173C13.9233 9.01236 14.1155 10.2126 14.1155 11.2868H10.7116C10.6699 10.8045 10.4914 10.4183 10.0499 10.1709C9.80152 10.0322 9.49875 9.96327 9.13977 9.96327C8.32665 9.96327 7.59601 10.267 6.97597 10.8879C6.50731 11.3421 6.12115 12.0591 5.80387 13.0372C5.43221 14.2365 5.36332 15.0641 5.62529 15.5183C5.87367 15.9606 6.35593 16.1936 7.05846 16.1936C7.7474 16.1936 8.32665 16.0005 8.78171 15.6425C9.13977 15.3805 9.47064 14.9807 9.76072 14.5266H13.151ZM20.6223 14.5538C20.3876 15.298 20.0712 15.8229 19.6705 16.1519C19.2572 16.4837 18.8302 16.6623 18.3606 16.6623C17.9074 16.6623 17.5756 16.4837 17.3825 16.1519C17.1758 15.8084 17.1894 15.298 17.4097 14.5936C17.6173 13.892 17.9337 13.3817 18.347 13.0372C18.7604 12.7063 19.2028 12.5413 19.685 12.5413C20.1256 12.5413 20.4429 12.7054 20.6359 13.0372C20.8426 13.3681 20.8281 13.8784 20.6223 14.5538ZM23.6818 11.8243C23.1025 10.9142 21.973 10.46 20.2779 10.46C18.8021 10.46 17.5067 10.8462 16.4044 11.6176C15.2876 12.4036 14.5425 13.3953 14.1708 14.5946C13.7575 15.8908 13.9505 16.9388 14.7229 17.7374C15.3565 18.3719 16.3482 18.7028 17.7143 18.7028C19.2291 18.7028 20.5389 18.303 21.6421 17.5307C22.7444 16.7593 23.4751 15.7667 23.8612 14.5538C24.2057 13.4787 24.1368 12.5685 23.6818 11.8243ZM31.2147 14.5266C31.009 15.2291 30.7189 15.7114 30.3744 16.0005C30.0299 16.2906 29.6719 16.442 29.2993 16.442C28.8724 16.442 28.5551 16.2906 28.3756 15.9869C28.1834 15.6842 28.197 15.2155 28.3892 14.5946C28.5968 13.9201 28.8859 13.4234 29.2594 13.1351C29.6311 12.8305 30.0154 12.6791 30.4433 12.6791C30.815 12.6791 31.0914 12.8169 31.2573 13.1197C31.4359 13.4234 31.4223 13.892 31.2147 14.5266ZM34.4273 11.6584C34.0548 10.8598 33.3105 10.46 32.1811 10.46C31.6154 10.46 31.0643 10.5688 30.5131 10.8045C30.1133 10.9695 29.6302 11.3004 29.0518 11.7962L29.4099 10.6386H26.3913L22.9865 21.5147H26.2399L27.4256 17.751C27.6459 18.0682 27.9486 18.303 28.3076 18.4544C28.6657 18.6194 29.0926 18.7028 29.5885 18.7028C30.6083 18.7028 31.5737 18.3583 32.4557 17.6694C33.3522 16.9659 33.9995 15.9733 34.4137 14.6634C34.7854 13.4642 34.7854 12.4725 34.4273 11.6584ZM41.5125 15.2572C41.3874 15.6289 41.2351 15.9461 41.0284 16.18C40.8227 16.4148 40.5462 16.607 40.1881 16.7729C39.848 16.9349 39.4762 17.0197 39.0994 17.0212C38.755 17.0212 38.5202 16.9388 38.3969 16.7865C38.2591 16.6351 38.231 16.442 38.3135 16.2081C38.3697 16.0005 38.5202 15.8219 38.755 15.6561C38.9752 15.4911 39.4439 15.3388 40.1473 15.1738C40.6567 15.0569 41.1622 14.9236 41.663 14.774L41.5125 15.2572ZM45.3987 12.1833C45.3715 11.7835 45.2473 11.4662 45.0397 11.246C44.7505 10.9142 44.3236 10.7075 43.7724 10.6114C43.2213 10.5017 42.4489 10.46 41.4844 10.46C40.8771 10.46 40.3132 10.5017 39.7621 10.5833C39.2236 10.6658 38.7686 10.7773 38.4386 10.9423C37.9554 11.149 37.5566 11.3973 37.2529 11.6865C36.9356 11.9766 36.6464 12.3755 36.3709 12.8858L39.3605 13.1886C39.5962 12.8441 39.8301 12.6102 40.0784 12.486C40.3957 12.3338 40.8091 12.2522 41.3466 12.2522C41.7591 12.2522 42.022 12.3202 42.1452 12.4725C42.2567 12.6238 42.2567 12.8858 42.1452 13.2584C41.692 13.3953 41.2768 13.5195 40.8916 13.6164C40.4927 13.698 39.6642 13.8648 38.3833 14.0987C37.3073 14.2773 36.5223 14.5665 36.0264 14.9535C35.5392 15.3253 35.182 15.8415 35.0057 16.4284C34.7999 17.0765 34.8969 17.6132 35.2813 18.041C35.6683 18.4825 36.3573 18.7028 37.3635 18.7028C38.1204 18.7028 38.8229 18.5922 39.4575 18.3719C39.9261 18.206 40.4365 17.9305 40.9731 17.5588C40.9459 17.7791 40.9333 17.9441 40.9333 18.0546C40.9333 18.1652 40.9595 18.3157 41.0284 18.5224H44.0471C43.9927 18.1924 43.9655 17.9169 43.9782 17.7111C43.9927 17.5026 44.0616 17.2134 44.1713 16.8418L45.2618 13.3545C45.3841 12.9828 45.4258 12.5966 45.3977 12.1824L45.3987 12.1833ZM48.0864 10.6386H51.105L50.7062 11.9204C51.1748 11.3692 51.6018 10.984 51.9744 10.7773C52.346 10.5561 52.7594 10.46 53.2145 10.46C53.6967 10.46 54.1654 10.5978 54.6467 10.8734L52.9797 13.0236C52.6352 12.8713 52.3596 12.8033 52.1393 12.8033C51.7133 12.8033 51.3389 12.9683 50.9944 13.2856C50.5267 13.7542 50.0852 14.6091 49.6864 15.8763L48.8587 18.5233H45.6189L48.0864 10.6386ZM60.9188 7.63449L59.9814 10.6386H61.7464L61.0574 12.845H59.278L58.4096 15.6425C58.299 15.9733 58.2718 16.1936 58.299 16.3042C58.3534 16.4701 58.5057 16.5671 58.7803 16.5671C59.016 16.5671 59.3732 16.4973 59.8427 16.3586L59.4158 18.4544C58.5755 18.6194 57.8022 18.7028 57.1142 18.7028C56.302 18.7028 55.7354 18.6067 55.419 18.4127C55.1009 18.2205 54.9087 17.9169 54.8534 17.5307C54.7836 17.1318 54.8951 16.4973 55.1843 15.6153L56.0518 12.845H54.8543L55.5432 10.6386H56.7416L57.1976 9.17825L60.9188 7.63449Z" fill="white"/>
</g>
<line x1="45.6346" y1="16.9278" x2="36.4221" y2="15.7762" stroke="black" stroke-width="1.15156"/>
</g>
</g>
</g>
<defs>
<clipPath id="clip0_13_13">
<rect width="72.5484" height="29.0078" fill="white" transform="translate(0.794922 0.913086)"/>
</clipPath>
<clipPath id="clip1_13_13">
<rect width="72.5484" height="29.0078" fill="white" transform="translate(0.794922 0.913086)"/>
</clipPath>
<clipPath id="clip2_13_13">
<rect width="72.5196" height="29.0078" fill="white" transform="translate(0.809082 0.913086)"/>
</clipPath>
</defs>
</svg>
