<svg width="92" height="27" viewBox="0 0 92 27" fill="none" xmlns="http://www.w3.org/2000/svg">
<g opacity="0.6" clip-path="url(#clip0_13_35)">
<g clip-path="url(#clip1_13_35)">
<g clip-path="url(#clip2_13_35)">
<mask id="mask0_13_35" style="mask-type:luminance" maskUnits="userSpaceOnUse" x="1" y="0" width="91" height="26">
<path d="M1.0498 0.816406H91.346V25.97H1.0498V0.816406Z" fill="white"/>
</mask>
<g mask="url(#mask0_13_35)">
<path fill-rule="evenodd" clip-rule="evenodd" d="M73.3358 20.1912L62.4996 17.0048L62.1656 18.4627L66.4552 20.19H73.3381L73.3358 20.1912ZM62.9372 15.0828L62.6021 16.5534L74.9698 20.1912H75.0654C77.642 20.2408 80.204 19.7939 82.6116 18.8749L62.9372 15.0828ZM76.8342 14.2825C76.3149 15.0437 74.4586 15.5665 71.7351 15.5665L72.1474 13.838L63.4128 13.0123L63.042 14.6314L83.3394 18.5398C84.9746 17.7211 86.14 16.6052 86.5638 15.2049L76.8331 14.2837L76.8342 14.2825ZM83.1413 10.8969H63.8895L63.513 12.5609L72.2533 13.3866C72.3489 12.9743 72.4456 12.5736 72.5182 12.2638C75.0493 12.1544 76.9954 12.7544 76.992 13.838L86.6858 14.7535C86.7327 14.4982 86.7558 14.2392 86.7549 13.9796C86.7768 13.0319 86.0294 11.4451 83.139 10.8969M62.0585 18.9198C61.9653 19.3333 61.8651 19.7524 61.7672 20.1912H65.2173L62.0585 18.9198ZM83.1068 10.4397C84.0377 10.317 84.937 10.0196 85.7577 9.5634C86.4673 9.16323 87.0516 8.57359 87.4453 7.8604C87.839 7.14721 88.0266 6.33857 87.9871 5.52488C87.9491 4.55757 86.8897 3.37146 85.6517 2.82332C83.4523 1.84103 80.1956 1.54969 78.17 1.54969H66.0211C65.1896 5.18171 64.592 7.81303 63.9943 10.4374H83.1068V10.4397ZM74.1638 5.08038C75.7022 5.08038 78.018 5.22893 78.0399 6.38279C78.0332 6.72086 77.9148 7.04721 77.7031 7.31092C77.4915 7.57464 77.1985 7.7609 76.8699 7.84067C75.7545 8.18208 74.5903 8.33694 73.4245 8.29899L74.1638 5.08038ZM46.8695 13.3808L57.9244 20.3731C58.5808 20.3017 59.2326 20.1854 59.874 20.0242L46.8695 13.3808ZM56.8189 15.3293C56.7222 15.335 56.622 15.3477 56.5287 15.3477C55.2427 15.4214 53.9754 15.0124 52.975 14.2007L47.6986 12.6461L60.8126 17.9214C60.9139 17.4838 61.0118 17.0578 61.1212 16.5994L56.8189 15.3293ZM46.3628 12.607L60.3876 19.7662C60.5085 19.2434 60.6122 18.792 60.7101 18.3798L46.3628 12.6047V12.607ZM61.644 14.362L61.7822 13.7678C61.5124 13.9402 61.2307 14.0934 60.9392 14.2261L61.644 14.362ZM44.6158 12.5045L54.7703 20.5332C55.0697 20.5332 55.3634 20.5274 55.6455 20.5217C56.0727 20.5217 56.6128 20.4952 57.1805 20.4434L44.6158 12.5045ZM52.0561 10.4397C52.7125 8.51779 55.292 7.36968 57.7275 7.07373C59.7082 6.86645 62.0954 7.33859 62.898 8.81489C63.5314 5.89338 63.9402 4.26737 64.5528 1.53242C62.7052 1.23674 60.8351 1.10533 58.9643 1.13973C55.1595 1.29404 49.0609 2.21069 45.2699 5.80356C43.9304 7.07319 42.9469 8.67167 42.4175 10.4397H52.0561ZM42.2148 11.2009C41.6644 14.1547 42.4705 16.2183 44.0136 17.6312C46.4077 19.8181 50.5418 20.4629 54.0149 20.5274L42.2137 11.1998L42.2148 11.2009ZM51.9409 10.8981H46.0069L51.9075 11.4589C51.9075 11.4071 51.8983 11.3621 51.8983 11.3103C51.9041 11.1721 51.919 11.0339 51.9432 10.8981M52.1643 13.0008L47.4924 12.1037L52.4591 13.5685C52.3427 13.3897 52.2447 13.1995 52.1666 13.0008M60.1965 14.5554C59.4825 14.8318 58.7455 15.046 57.9958 15.1934L61.2306 16.148L61.5415 14.8122L60.1965 14.5554ZM52.0331 12.5103C51.9864 12.3171 51.954 12.1208 51.9363 11.923L46.144 11.3748L52.0331 12.5103ZM31.875 7.98807L31.7368 8.59379L38.151 9.83287L31.875 7.98807ZM32.126 6.87221L31.9763 7.53666L38.6508 9.49661L32.126 6.87221ZM41.1658 9.78105L41.4249 9.94227L43.2236 1.31823L33.3812 1.30786L32.9367 3.27473L41.1681 9.78105H41.1658ZM31.6308 9.0452L31.5226 9.5231L36.6298 10.0068L31.6308 9.0452ZM36.2785 10.4386L31.419 9.98142L31.3153 10.4386H36.2785ZM41.1278 10.8969H31.2128L29.1101 20.19H39.2899L41.2245 10.9096L41.1278 10.8969ZM38.0911 8.3819L32.5705 4.89267L32.4346 5.49148L38.0911 8.3819ZM36.9833 8.33584L32.331 5.95671L32.225 6.42079L36.9845 8.33584H36.9833ZM32.6788 4.41477L37.4347 7.42035L32.8227 3.77566L32.6788 4.41477ZM21.9312 2.77034L21.4844 4.44702L30.2098 7.015L30.4102 6.18818L21.9312 2.77034ZM4.15113 6.92978L18.5779 8.29784L17.2881 6.27915L4.83171 3.8793L4.14998 6.93093L4.15113 6.92978ZM29.6502 9.34806L29.8068 8.69167L20.8154 6.96203L20.4123 8.47172L29.6502 9.34806ZM24.1273 1.24913L30.7787 4.64739L30.9641 3.87354L26.8069 1.24798H24.1261L24.1273 1.24913ZM29.915 8.24717L30.1027 7.46641L21.3658 4.89267L20.934 6.51868L29.915 8.24717ZM30.5196 5.73216L30.6693 5.11262L23.1104 1.24798H22.3366L22.051 2.32469L30.5196 5.73216ZM16.9427 5.74368L14.0615 1.24913H5.419L4.93189 3.42673L16.9427 5.74137V5.74368ZM29.3876 10.4397L29.5419 9.80178L20.2926 8.92429L19.9056 10.3753L18.8923 8.7884L4.04865 7.3835L3.36692 10.4397H29.3876ZM3.26789 10.8969L1.17205 20.2821L10.4605 20.19L12.2754 11.49L18.2439 20.1912H27.0442L29.2782 10.8969H3.26443H3.26789ZM31.0815 3.40255L31.5986 1.24798H27.6764L31.0815 3.40255ZM90.6864 1.46102C90.5176 1.29486 90.3109 1.17231 90.0842 1.10397C89.8574 1.03563 89.6174 1.02356 89.3849 1.06881C89.1525 1.11405 88.9345 1.21525 88.75 1.36365C88.5654 1.51204 88.4198 1.70317 88.3257 1.92049C88.2531 2.09323 88.2174 2.27978 88.2209 2.46748C88.2199 2.65682 88.2566 2.84445 88.3287 3.01952C88.4008 3.19458 88.5069 3.35361 88.6409 3.48738C88.7749 3.62115 88.9341 3.72701 89.1093 3.79883C89.2844 3.87065 89.4721 3.907 89.6615 3.90578C89.8517 3.90872 90.0407 3.8731 90.2168 3.80106C90.3929 3.72902 90.5527 3.62205 90.6864 3.48662C90.8223 3.35436 90.9297 3.19576 91.0022 3.02052C91.0747 2.84528 91.1106 2.6571 91.1078 2.46748C91.1107 2.27974 91.0747 2.09344 91.0022 1.92025C90.9296 1.74706 90.8221 1.59072 90.6864 1.46102ZM90.8533 1.2998C91.0091 1.45238 91.1328 1.6345 91.2173 1.8355C91.3018 2.0365 91.3453 2.25234 91.3453 2.47036C91.3453 2.68839 91.3018 2.90423 91.2173 3.10523C91.1328 3.30623 91.0091 3.48835 90.8533 3.64092C90.6577 3.83475 90.4175 3.97775 90.1539 4.05747C89.8903 4.13719 89.6112 4.1512 89.3409 4.09828C89.0706 4.04536 88.8174 3.92712 88.6033 3.75386C88.3892 3.58061 88.2207 3.3576 88.1126 3.1043C87.986 2.80142 87.9533 2.46751 88.0185 2.1458C88.0838 1.82409 88.2442 1.52937 88.4788 1.2998C88.7963 0.989889 89.2224 0.816406 89.6661 0.816406C90.1097 0.816406 90.5358 0.989889 90.8533 1.2998ZM89.9114 2.38918C89.9706 2.37059 90.0218 2.33244 90.0565 2.28098C90.0912 2.22951 90.1075 2.16778 90.1025 2.10589C90.1089 2.05476 90.1008 2.00286 90.0793 1.95605C90.0577 1.90925 90.0235 1.86941 89.9804 1.84103C89.857 1.78662 89.7224 1.76254 89.5878 1.77079H89.3091V2.43409H89.605C89.7099 2.44051 89.815 2.42522 89.9137 2.38918M88.9878 3.37031V1.55775H89.6327C89.8031 1.54854 89.9747 1.56927 90.1371 1.62224C90.2275 1.65759 90.3041 1.72116 90.3556 1.80352C90.407 1.88587 90.4305 1.98262 90.4226 2.07941C90.4271 2.15015 90.4129 2.22083 90.3814 2.28432C90.3498 2.3478 90.3021 2.40185 90.243 2.441C90.1594 2.48507 90.0685 2.51356 89.9747 2.52506C90.0372 2.53197 90.0976 2.55157 90.1523 2.58266C90.2069 2.61375 90.2546 2.65567 90.2925 2.70586C90.3559 2.78647 90.3916 2.88665 90.3939 2.98914V3.11812L90.3985 3.254C90.3985 3.28624 90.4031 3.31964 90.4146 3.35073L90.4261 3.37031H90.1209L90.1163 3.35649L90.1129 3.33116L90.1048 3.27358V3.13078C90.1157 3.05188 90.1054 2.97151 90.0751 2.89787C90.0447 2.82423 89.9954 2.75996 89.9321 2.71161C89.8173 2.66456 89.6931 2.64485 89.5693 2.65404H89.3114V3.37031H88.9878ZM1.04883 25.9121V22.8156H1.66491L2.95466 24.8861V22.8156H3.54196V25.9121H2.9086L1.63843 23.8785V25.911H1.04883V25.9121ZM5.02402 24.6799L5.44664 23.5388L5.88193 24.6799H5.02402ZM5.78405 22.8156H5.11269L3.89434 25.9121H4.56685L4.82825 25.2097H6.08806L6.35868 25.9121H7.04731L5.78405 22.8156ZM7.76473 25.9121V23.3372H6.84003V22.8144H9.3274V23.3372H8.40155V25.911H7.76473V25.9121ZM9.72239 22.8156H10.3581V25.9121H9.72124V22.8156H9.72239ZM11.7261 23.5641C11.8065 23.4771 11.9047 23.4084 12.014 23.3627C12.1232 23.317 12.2411 23.2954 12.3595 23.2992C12.4778 23.2948 12.5956 23.3163 12.7048 23.362C12.8139 23.4077 12.9118 23.4767 12.9917 23.5641C13.1475 23.802 13.23 24.0805 13.2288 24.3649C13.2275 24.6493 13.1427 24.9271 12.9848 25.1636C12.9068 25.2518 12.8103 25.3218 12.7023 25.3686C12.5942 25.4153 12.4772 25.4377 12.3595 25.4342C12.2415 25.4374 12.1242 25.4148 12.0158 25.3681C11.9075 25.3213 11.8106 25.2516 11.7319 25.1636C11.5513 24.9376 11.4628 24.6517 11.4843 24.3633C11.4635 24.0765 11.5488 23.7921 11.7261 23.5641ZM11.2459 25.5505C11.3934 25.6926 11.5684 25.803 11.76 25.8751C11.9517 25.9471 12.1561 25.9793 12.3606 25.9697C12.5645 25.9792 12.7682 25.9462 12.9587 25.8729C13.1492 25.7995 13.3224 25.6874 13.4673 25.5436C13.7354 25.2098 13.8813 24.7943 13.8806 24.3661C13.88 23.9379 13.7329 23.5229 13.4638 23.1898C13.318 23.0459 13.144 22.9338 12.9528 22.8604C12.7615 22.7871 12.5572 22.7542 12.3526 22.7638C12.1222 22.7614 11.8919 22.8041 11.6754 22.887C11.5223 22.9532 11.3841 23.0495 11.2689 23.1703C11.1471 23.2911 11.0484 23.4331 10.9776 23.5894C10.874 23.8428 10.8256 24.1157 10.8336 24.3898C10.8222 24.6009 10.8528 24.8122 10.9236 25.0114C10.9943 25.2107 11.1039 25.3939 11.2459 25.5505ZM14.3805 25.9121V22.8156H14.9954L16.2851 24.8861V22.8156H16.8724V25.9121H16.2391L14.9689 23.8796V25.9121H14.3805ZM18.3556 24.6799L18.7783 23.5388L19.2136 24.6799H18.3556ZM19.1157 22.8156H18.4455L17.2271 25.9121H17.9008L18.1587 25.2097H19.4185L19.6891 25.9121H20.3755L19.1157 22.8156ZM20.7359 25.9121V22.8421H21.3727V25.3893H22.9458V25.9121H20.7359ZM24.5188 22.8156H25.1545V25.9121H24.5188V22.8156ZM25.7625 25.9121V22.8156H26.3786L27.6683 24.8861V22.8156H28.2556V25.9121H27.6223L26.3509 23.8796V25.9121H25.7625ZM28.7669 24.8987L29.3853 24.8412C29.4048 25.0134 29.4843 25.1732 29.6098 25.2926C29.7455 25.3831 29.9044 25.4325 30.0675 25.4347C30.2305 25.437 30.3907 25.392 30.5288 25.3052C30.576 25.2713 30.6146 25.2267 30.6414 25.1751C30.6682 25.1235 30.6825 25.0663 30.6831 25.0081C30.6846 24.9403 30.6617 24.8741 30.6186 24.8216C30.5558 24.7577 30.4777 24.711 30.3918 24.6857C30.2246 24.6346 30.0556 24.5897 29.8851 24.551C29.6282 24.5081 29.3853 24.4042 29.1769 24.2481C29.0853 24.1731 29.0118 24.0785 28.9617 23.9713C28.9117 23.864 28.8864 23.7469 28.8878 23.6286C28.8895 23.4644 28.9408 23.3045 29.0349 23.1699C29.129 23.0353 29.2616 22.9323 29.4152 22.8743C29.611 22.7971 29.8217 22.7591 30.0325 22.7638C30.3503 22.743 30.6647 22.834 30.9215 23.0229C31.0197 23.1075 31.0984 23.2123 31.1525 23.3302C31.2065 23.448 31.2346 23.5761 31.2347 23.7057L30.5979 23.7322C30.5873 23.6 30.5253 23.4772 30.4252 23.3902C30.3081 23.3096 30.1673 23.2711 30.0256 23.2808C29.8737 23.2717 29.723 23.3121 29.596 23.396C29.5646 23.416 29.5388 23.4438 29.5213 23.4767C29.5037 23.5095 29.495 23.5464 29.4958 23.5837C29.4954 23.6209 29.5037 23.6578 29.5198 23.6913C29.536 23.7249 29.5597 23.7542 29.5891 23.7771C29.7688 23.8808 29.9657 23.9499 30.1695 23.9833C30.4044 24.0293 30.6336 24.103 30.8524 24.2021C30.9944 24.274 31.1139 24.3835 31.1979 24.5187C31.2853 24.6691 31.3285 24.8412 31.3222 25.0151C31.321 25.1969 31.2658 25.3742 31.1637 25.5247C31.0617 25.6752 30.9172 25.792 30.7487 25.8603C30.5299 25.9386 30.2973 25.9755 30.0647 25.9697C29.7374 25.9913 29.4132 25.8954 29.1504 25.6991C28.9265 25.4903 28.7906 25.2041 28.7704 24.8987M31.8542 22.8156H32.4911V24.4922C32.4855 24.6668 32.4932 24.8416 32.5141 25.0151C32.5397 25.1367 32.6089 25.2448 32.7087 25.3191C32.8316 25.4024 32.9785 25.4429 33.1267 25.4342C33.2707 25.4469 33.4146 25.4077 33.5321 25.3248C33.6189 25.2607 33.6782 25.1661 33.6979 25.06C33.7209 24.8849 33.729 24.7087 33.7255 24.5314V22.8156H34.3623V24.4416C34.3707 24.7071 34.3533 24.9728 34.3105 25.235C34.2818 25.3783 34.2163 25.5116 34.1205 25.6219C34.0198 25.7364 33.893 25.8249 33.7509 25.8799C33.5551 25.9455 33.3501 25.9755 33.1451 25.9697C32.9125 25.9812 32.6799 25.9467 32.4611 25.8661C32.3184 25.81 32.1917 25.7194 32.0926 25.6024C32.0088 25.5029 31.9483 25.3861 31.9153 25.2603C31.8663 24.9988 31.8447 24.7329 31.8508 24.4669V22.8156H31.8542ZM35.6717 23.3384H36.1611C36.419 23.3384 36.5699 23.3453 36.6217 23.351C36.7127 23.3626 36.7967 23.4063 36.8589 23.4743C36.9175 23.5445 36.9479 23.634 36.9441 23.7253C36.9467 23.8076 36.9242 23.8887 36.8797 23.9579C36.8398 24.022 36.7766 24.0683 36.7035 24.0869C36.5169 24.1214 36.3269 24.1353 36.1369 24.1249H35.6682V23.3384H35.6717ZM35.6717 25.9121V24.6224H35.8006C35.9073 24.6159 36.0142 24.6267 36.1173 24.6546C36.1899 24.6821 36.255 24.7263 36.3073 24.7836C36.4259 24.9298 36.5376 25.083 36.6401 25.2408L37.0915 25.9121H37.8504L37.4681 25.3052C37.3618 25.128 37.2412 24.9597 37.1077 24.802C37.0073 24.7008 36.8934 24.6139 36.7691 24.5441C37.0021 24.5241 37.2211 24.424 37.3886 24.2608C37.5283 24.1027 37.6021 23.897 37.5948 23.6862C37.5982 23.5131 37.5505 23.3429 37.4577 23.1967C37.374 23.0585 37.245 22.9536 37.0927 22.8996C36.8557 22.8314 36.6089 22.803 36.3626 22.8156H35.0326V25.9121H35.6717ZM39.01 24.6799L39.4327 23.5388L39.868 24.6799H39.0066H39.01ZM39.7712 22.8156H39.0976L37.8792 25.9121H38.5529L38.8108 25.2097H40.0706L40.3413 25.9121H41.0264L39.7712 22.8156ZM41.3754 25.9121V22.8156H41.9914L43.2812 24.8861V22.8156H43.8685V25.9121H43.2305L41.9592 23.8796V25.9121H41.3719H41.3754ZM46.5551 24.7709L47.1723 24.9575C47.1032 25.2569 46.9374 25.524 46.7002 25.7175C46.4563 25.8913 46.161 25.9781 45.8618 25.9639C45.6699 25.971 45.4786 25.9372 45.3008 25.8647C45.1229 25.7922 44.9624 25.6828 44.83 25.5436C44.6904 25.3885 44.5828 25.2073 44.5134 25.0105C44.4441 24.8137 44.4143 24.605 44.4258 24.3967C44.3993 23.957 44.5446 23.5243 44.8312 23.1898C44.9692 23.0478 45.1356 22.9365 45.3195 22.863C45.5035 22.7896 45.7008 22.7558 45.8987 22.7638C46.2442 22.7522 46.5793 22.872 46.8384 23.1C46.995 23.2578 47.1067 23.457 47.1608 23.6735L46.532 23.822C46.5018 23.6716 46.4189 23.5368 46.2983 23.442C46.1747 23.3476 46.0231 23.2973 45.8676 23.2992C45.7596 23.2957 45.6521 23.3165 45.5532 23.3602C45.4544 23.4038 45.3666 23.4692 45.2964 23.5514C45.1295 23.7805 45.0517 24.0626 45.0776 24.3448C45.05 24.6408 45.126 24.9367 45.293 25.1832C45.3615 25.2638 45.4476 25.3278 45.5445 25.3703C45.6415 25.4128 45.7468 25.4327 45.8526 25.4285C46.0126 25.4319 46.1683 25.3766 46.2902 25.273C46.4265 25.1362 46.5177 24.961 46.5516 24.7709M47.7124 25.911V22.8156H50.0385V23.3384H48.3515V24.0293H49.9234V24.551H48.3515V25.3893H50.0996V25.9121H47.7135L47.7124 25.911ZM53.8698 24.7709L54.487 24.9575C54.4179 25.2569 54.2521 25.524 54.0149 25.7175C53.7707 25.8916 53.475 25.9784 53.1754 25.9639C52.9834 25.9713 52.7921 25.9376 52.6142 25.8651C52.4362 25.7926 52.2758 25.683 52.1436 25.5436C52.0039 25.3886 51.8963 25.2074 51.8272 25.0105C51.758 24.8136 51.7285 24.605 51.7406 24.3967C51.7137 23.9574 51.8582 23.5248 52.1436 23.1898C52.2818 23.0478 52.4484 22.9364 52.6326 22.863C52.8167 22.7896 53.0142 22.7558 53.2122 22.7638C53.5577 22.7522 53.8917 22.872 54.1508 23.1C54.3085 23.2578 54.4202 23.457 54.4732 23.6735L53.8456 23.822C53.8157 23.6718 53.7332 23.537 53.613 23.442C53.4886 23.3474 53.3362 23.2972 53.18 23.2992C53.0721 23.2957 52.9649 23.3165 52.8662 23.3602C52.7675 23.4038 52.6799 23.4692 52.61 23.5514C52.4426 23.7803 52.3648 24.0625 52.3912 24.3448C52.3639 24.6406 52.4396 24.9367 52.6054 25.1832C52.6738 25.264 52.7598 25.3281 52.8568 25.3706C52.9538 25.4131 53.0592 25.4329 53.165 25.4285C53.325 25.4316 53.4805 25.3763 53.6026 25.273C53.7387 25.1357 53.8306 24.9609 53.8663 24.7709M55.6639 23.3372H56.1556C56.4136 23.3372 56.5656 23.3441 56.6163 23.3499C56.7072 23.3614 56.7913 23.4052 56.8546 23.4731C56.9122 23.5422 56.9433 23.6332 56.9387 23.7242C56.9413 23.8064 56.9188 23.8876 56.8742 23.9568C56.8342 24.0208 56.7712 24.067 56.698 24.0857C56.5115 24.1203 56.3203 24.1341 56.1315 24.1237H55.6639V23.3372ZM55.6639 25.911V24.6212H55.7929C55.8999 24.6147 56.0072 24.6256 56.1107 24.6535C56.1833 24.6811 56.2478 24.7249 56.3007 24.7824C56.4193 24.9287 56.5311 25.0818 56.6324 25.2396L57.0849 25.911H57.8427L57.4604 25.3041C57.3547 25.1267 57.2346 24.9584 57.1011 24.8009C57.0005 24.6999 56.8866 24.6131 56.7625 24.5429C56.9952 24.5227 57.2137 24.4226 57.3809 24.2596C57.5208 24.1016 57.595 23.896 57.5882 23.685C57.5911 23.5118 57.543 23.3416 57.45 23.1956C57.3667 23.0575 57.2381 22.9525 57.0861 22.8985C56.8495 22.8303 56.6031 22.8019 56.3572 22.8144H55.0329V25.911H55.6708H55.6639ZM58.1743 22.8144H58.81V25.911H58.1743V22.8144ZM59.4076 25.911V22.8144H60.3577L60.9231 24.9241L61.4874 22.8144H62.4409V25.911H61.8536V23.4731L61.2283 25.911H60.6179L60.003 23.4731V25.911H59.4076ZM63.0742 25.911V22.8144H65.4004V23.3372H63.711V24.0282H65.2887V24.5498H63.7156V25.3882H65.466V25.911H63.0742ZM68.2217 23.3315C68.4013 23.3246 68.5821 23.3292 68.7618 23.343C68.8062 23.3435 68.8501 23.353 68.8909 23.3708C68.9316 23.3886 68.9684 23.4144 68.999 23.4466C69.0532 23.5118 69.0818 23.5945 69.0796 23.6792C69.0816 23.7242 69.0744 23.7691 69.0586 23.8113C69.0428 23.8534 69.0186 23.892 68.9875 23.9245C68.9153 23.9882 68.8244 24.0266 68.7284 24.0339C68.5759 24.0445 68.423 24.0488 68.2701 24.0466H67.8555V23.3303L68.2217 23.3315ZM67.2233 25.911H68.2908C68.6961 25.911 68.9506 25.9041 69.0554 25.8914C69.2024 25.8823 69.3445 25.8346 69.4672 25.7531C69.5899 25.6716 69.689 25.5593 69.7544 25.4273C69.8189 25.299 69.8528 25.1575 69.8535 25.0139C69.857 24.8441 69.803 24.6782 69.7003 24.5429C69.5875 24.4055 69.4331 24.3085 69.2604 24.2665C69.3907 24.207 69.5022 24.1131 69.5828 23.9948C69.6564 23.8812 69.6972 23.7495 69.7009 23.6142C69.7045 23.4789 69.6709 23.3452 69.6036 23.2278C69.5419 23.1258 69.4595 23.038 69.3617 22.9699C69.2622 22.906 69.1511 22.8622 69.0347 22.8409C68.8505 22.8192 68.6651 22.8104 68.4797 22.8144H67.2256V25.911H67.2233ZM68.3726 24.5636C68.5603 24.5521 68.7503 24.5671 68.9334 24.6074C69.014 24.6293 69.0842 24.6765 69.1337 24.7433C69.1798 24.8135 69.204 24.8976 69.2028 24.9817C69.2066 25.078 69.1746 25.1724 69.113 25.2465C69.0515 25.3111 68.9707 25.354 68.8827 25.3686C68.7383 25.3861 68.5928 25.3926 68.4474 25.3882H67.8601V24.5625H68.3749L68.3726 24.5636ZM70.3832 22.8144H71.02V24.4911C71.0142 24.6661 71.0223 24.8412 71.043 25.0139C71.0686 25.1353 71.1373 25.2433 71.2365 25.3179C71.3593 25.4015 71.5063 25.442 71.6545 25.4331C71.7984 25.4446 71.9424 25.4066 72.0599 25.3237C72.1466 25.2597 72.2055 25.1649 72.2245 25.0588C72.2476 24.8838 72.2579 24.7076 72.2533 24.5302V22.8144H72.8993V24.4404C72.9074 24.7053 72.8901 24.9701 72.8475 25.2339C72.8189 25.3771 72.7534 25.5105 72.6575 25.6208C72.5567 25.735 72.4299 25.8235 72.2879 25.8787C72.0921 25.9444 71.8883 25.9743 71.6821 25.9685C71.4495 25.9801 71.2169 25.9455 70.9993 25.8649C70.8675 25.813 70.7496 25.7313 70.6547 25.6262C70.5598 25.5211 70.4905 25.3955 70.4523 25.2592C70.4047 24.9975 70.3842 24.7316 70.3912 24.4658V22.8144H70.3832ZM74.2006 23.3372H74.6923C74.9503 23.3372 75.1023 23.3441 75.1518 23.3499C75.2428 23.3614 75.3268 23.4052 75.3902 23.4731C75.4483 23.5435 75.4783 23.6329 75.4742 23.7242C75.4769 23.8064 75.4544 23.8876 75.4097 23.9568C75.3696 24.0206 75.3066 24.0668 75.2336 24.0857C75.047 24.1203 74.8558 24.1341 74.667 24.1237H74.2006V23.3372ZM74.2006 25.911V24.6212H74.3296C74.4366 24.6147 74.5439 24.6256 74.6474 24.6535C74.72 24.6799 74.7856 24.7249 74.8374 24.7824C74.956 24.9287 75.0677 25.0818 75.1691 25.2396L75.6239 25.911H76.3817L75.9993 25.3041C75.8935 25.1268 75.7734 24.9585 75.6401 24.8009C75.5396 24.6997 75.4257 24.6129 75.3015 24.5429C75.5343 24.5231 75.7529 24.423 75.9199 24.2596C76.0603 24.1019 76.1346 23.8961 76.1272 23.685C76.13 23.5119 76.082 23.3417 75.989 23.1956C75.9057 23.0575 75.7771 22.9525 75.6251 22.8985C75.3884 22.8303 75.1421 22.8019 74.8961 22.8144H73.5649V25.911H74.2006ZM76.734 25.911V22.8144H79.0613V23.3372H77.3709V24.0282H78.9427V24.5498H77.3709V25.3882H79.1201V25.911H76.734ZM80.4674 24.6788L80.8889 23.5376L81.3242 24.6788H80.4674ZM81.2274 22.8144H80.5618L79.3435 25.911H80.0171L80.2751 25.2085H81.536L81.8067 25.911H82.4918L81.2286 22.8156L81.2274 22.8144ZM82.8223 22.8144H83.4592V24.4911C83.4534 24.6661 83.4615 24.8412 83.4833 25.0139C83.5087 25.136 83.5778 25.2442 83.6768 25.3179C83.7997 25.4012 83.9466 25.4416 84.0948 25.4331C84.2388 25.4457 84.3827 25.4066 84.5013 25.3237C84.588 25.2596 84.6469 25.1649 84.666 25.0588C84.689 24.8838 84.6982 24.7076 84.6936 24.5302V22.8144H85.3305V24.4404C85.3397 24.7053 85.3224 24.9701 85.2786 25.2339C85.2505 25.3769 85.1858 25.5101 85.0909 25.6208C84.9891 25.7349 84.8616 25.8233 84.719 25.8787C84.5243 25.944 84.3196 25.9744 84.1144 25.9685C83.8818 25.9801 83.6492 25.9455 83.4304 25.8649C83.2877 25.8086 83.1612 25.7181 83.0619 25.6012C82.978 25.5018 82.9174 25.385 82.8845 25.2592C82.835 24.9977 82.8134 24.7318 82.82 24.4658V22.8144H82.8223Z" fill="#005AB3"/>
</g>
</g>
</g>
</g>
<defs>
<clipPath id="clip0_13_35">
<rect width="90.9733" height="25.3343" fill="white" transform="translate(0.504395 0.755859)"/>
</clipPath>
<clipPath id="clip1_13_35">
<rect width="90.9733" height="25.3343" fill="white" transform="translate(0.504395 0.755859)"/>
</clipPath>
<clipPath id="clip2_13_35">
<rect width="90.9733" height="25.3343" fill="white" transform="translate(0.504395 0.755859)"/>
</clipPath>
</defs>
</svg>
