<svg width="39" height="45" viewBox="0 0 39 45" fill="none" xmlns="http://www.w3.org/2000/svg">
<path d="M21.6585 1.24115L19.179 0L16.7131 1.23293C14.1079 2.54172 11.2207 3.18944 8.30606 3.11896C5.39144 3.04848 2.53892 2.26198 1.74906e-05 0.828804V15.7295C-0.00600546 21.4415 1.5436 27.0473 4.4825 31.9452C7.4214 36.8431 11.6386 40.8482 16.6816 43.5307L19.179 44.8636L21.6763 43.5307C26.7195 40.8485 30.9369 36.8434 33.8758 31.9454C36.8147 27.0474 38.3642 21.4415 38.3579 15.7295V0.828804C35.8214 2.26103 32.9717 3.04773 30.0597 3.11963C27.1476 3.19154 24.2626 2.54645 21.6585 1.24115ZM33.9591 5.39476C34.159 5.35161 34.366 5.35376 34.5649 5.40106C34.7639 5.44835 34.9497 5.53959 35.1088 5.66807C35.2679 5.79656 35.3962 5.95903 35.4843 6.14358C35.5725 6.32812 35.6181 6.53005 35.618 6.73455V15.7295C35.6239 20.9448 34.2092 26.0631 31.5258 30.5351C28.8425 35.0072 24.9918 38.6639 20.3872 41.1128L19.8228 41.4142C19.6244 41.5199 19.4031 41.5753 19.1783 41.5753C18.9535 41.5753 18.7321 41.5199 18.5337 41.4142L17.9707 41.1128C13.3661 38.6639 9.51544 35.0072 6.83209 30.5351C4.14875 26.0631 2.73404 20.9448 2.73987 15.7295V6.73318C2.73976 6.52868 2.78544 6.32675 2.87356 6.1422C2.96167 5.95766 3.08998 5.79519 3.24908 5.6667C3.40818 5.53822 3.59402 5.44698 3.79298 5.39969C3.99193 5.35239 4.19895 5.35024 4.39885 5.39339C8.97201 6.36812 13.7405 5.76651 17.9282 3.68647L18.5611 3.37001C18.7523 3.27366 18.9635 3.22347 19.1776 3.22347C19.3917 3.22347 19.6028 3.27366 19.7941 3.37001L20.4407 3.69195C24.6259 5.76758 29.3898 6.36766 33.9591 5.39476Z" fill="#8835C3"/>
<path d="M19.1797 6.125L19.1592 6.13596C14.928 8.23911 10.1607 9.01686 5.48048 8.36757V15.7282C5.47535 20.4312 6.7469 25.0474 9.15952 29.0844C11.5721 33.1215 15.0353 36.4279 19.1797 38.6511C23.3241 36.4279 26.7873 33.1215 29.1999 29.0844C31.6126 25.0474 32.8841 20.4312 32.879 15.7282V8.36893C28.2015 9.01877 23.4369 8.24146 19.2085 6.1387L19.1797 6.125ZM28.8706 13.439C29.1274 13.6959 29.2717 14.0443 29.2717 14.4076C29.2717 14.7708 29.1274 15.1192 28.8706 15.3761L17.4125 26.8341C17.1556 27.091 16.8072 27.2352 16.444 27.2352C16.0807 27.2352 15.7323 27.091 15.4755 26.8341L10.23 21.5887C9.98047 21.3303 9.84239 20.9843 9.84551 20.6251C9.84863 20.2659 9.9927 19.9223 10.2467 19.6683C10.5007 19.4143 10.8443 19.2702 11.2035 19.2671C11.5627 19.264 11.9087 19.4021 12.1671 19.6516L16.4399 23.9285L26.9294 13.439C27.1863 13.1822 27.5347 13.0379 27.8979 13.0379C28.2612 13.0379 28.6096 13.1822 28.8665 13.439H28.8706Z" fill="#FF4723"/>
</svg>
