<svg width="77" height="77" viewBox="0 0 77 77" fill="none" xmlns="http://www.w3.org/2000/svg">
<path d="M42.1389 68.3345H64.0577V76.5541H42.1389V68.3345ZM76.0582 28.3739C76.0544 27.7466 75.8361 27.1394 75.4396 26.6533C75.0432 26.1671 74.4924 25.8312 73.8787 25.7011C73.1581 25.5898 72.4219 25.7533 71.8162 26.1593C71.2105 26.5653 70.7795 27.1841 70.6087 27.893L66.84 41.9347C67.272 43.1774 67.252 44.5326 66.7838 45.762C66.3155 46.9915 65.4288 48.0165 64.2796 48.657L56.6081 53.0777C56.4521 53.1677 56.2799 53.226 56.1014 53.2494C55.9229 53.2728 55.7415 53.2609 55.5676 53.2142C55.3937 53.1675 55.2307 53.087 55.0879 52.9773C54.9451 52.8676 54.8253 52.7309 54.7354 52.5749C54.6454 52.419 54.5871 52.2468 54.5637 52.0683C54.5403 51.8898 54.5522 51.7084 54.5989 51.5345C54.6456 51.3606 54.7261 51.1976 54.8358 51.0548C54.9454 50.912 55.0822 50.7922 55.2381 50.7023L62.9097 46.2815C63.5484 45.9346 64.0321 45.3588 64.2636 44.6699C64.4952 43.9809 64.4573 43.2298 64.1577 42.5676C63.9314 42.1148 63.5825 41.7345 63.1506 41.4703C62.7188 41.2061 62.2214 41.0684 61.7151 41.0731C61.2344 41.0732 60.7621 41.1994 60.3452 41.4388L50.9886 46.9281C49.5483 47.7765 48.3538 48.9855 47.5226 50.4358C46.6915 51.8862 46.2525 53.5281 46.2487 55.1997V65.5947H59.9479V64.0056C59.9472 63.0166 60.1606 62.0393 60.5735 61.1407C60.9864 60.242 61.589 59.4435 62.3398 58.7999L68.7278 53.3202C69.3575 52.7822 69.809 52.0656 70.0224 51.2653L75.9678 29.0807C76.0291 28.8501 76.0595 28.6125 76.0582 28.3739ZM2.17962 25.7011C1.56592 25.8312 1.01514 26.1671 0.618688 26.6533C0.222235 27.1394 0.00395228 27.7466 6.96809e-05 28.3739C-0.00165803 28.6143 0.02875 28.8539 0.0904853 29.0862L6.03596 51.279C6.24878 52.0795 6.70033 52.7963 7.33053 53.3339L13.7185 58.8136C14.4676 59.4557 15.0691 60.252 15.482 61.1481C15.8948 62.0442 16.1091 63.019 16.1104 64.0056V65.5947H29.8096V55.1997C29.8063 53.5285 29.3677 51.887 28.5371 50.4368C27.7064 48.9866 26.5123 47.7778 25.0724 46.9295L15.6994 41.432C15.2845 41.1957 14.8151 41.072 14.3377 41.0731C13.8305 41.0703 13.3327 41.2101 12.9011 41.4765C12.4694 41.743 12.1213 42.1253 11.8965 42.58C11.597 43.2423 11.5594 43.9935 11.7911 44.6825C12.0229 45.3715 12.5069 45.9472 13.1459 46.2938L20.8174 50.7146C20.9734 50.8045 21.1101 50.9243 21.2198 51.0671C21.3295 51.2099 21.41 51.3729 21.4567 51.5468C21.5033 51.7207 21.5153 51.9021 21.4919 52.0806C21.4685 52.2591 21.4101 52.4313 21.3202 52.5873C21.2302 52.7432 21.1105 52.88 20.9677 52.9897C20.8249 53.0993 20.6619 53.1798 20.488 53.2265C20.3141 53.2732 20.1327 53.2852 19.9542 53.2617C19.7756 53.2383 19.6035 53.18 19.4475 53.09L11.7759 48.6693C10.6265 48.0288 9.73959 47.0035 9.27129 45.7738C8.803 44.544 8.78326 43.1886 9.21555 41.9457L5.44963 27.8985C5.27911 27.1891 4.8484 26.5696 4.24281 26.1626C3.63721 25.7557 2.90088 25.591 2.17962 25.7011ZM12.0006 68.3345H33.9194V76.5541H12.0006V68.3345ZM40.5087 1.24115L38.0292 0L35.5633 1.23293C32.9581 2.54172 30.0709 3.18944 27.1563 3.11896C24.2416 3.04848 21.3891 2.26198 18.8502 0.828804V15.7295C18.8442 21.4415 20.3938 27.0473 23.3327 31.9452C26.2716 36.8431 30.4889 40.8482 35.5318 43.5307L38.0292 44.8636L40.5265 43.5307C45.5697 40.8485 49.7871 36.8434 52.726 31.9454C55.6649 27.0474 57.2144 21.4415 57.2081 15.7295V0.828804C54.6716 2.26103 51.8219 3.04773 48.9099 3.11963C45.9979 3.19154 43.1128 2.54645 40.5087 1.24115ZM52.8093 5.39476C53.0092 5.35161 53.2162 5.35376 53.4151 5.40106C53.6141 5.44835 53.7999 5.53959 53.959 5.66807C54.1181 5.79656 54.2464 5.95903 54.3346 6.14358C54.4227 6.32812 54.4684 6.53005 54.4683 6.73455V15.7295C54.4741 20.9448 53.0594 26.0631 50.376 30.5351C47.6927 35.0072 43.842 38.6639 39.2374 41.1128L38.673 41.4142C38.4747 41.5199 38.2533 41.5753 38.0285 41.5753C37.8037 41.5753 37.5823 41.5199 37.3839 41.4142L36.8209 41.1128C32.2163 38.6639 28.3656 35.0072 25.6823 30.5351C22.9989 26.0631 21.5842 20.9448 21.5901 15.7295V6.73318C21.59 6.52868 21.6356 6.32675 21.7238 6.1422C21.8119 5.95766 21.9402 5.79519 22.0993 5.6667C22.2584 5.53822 22.4442 5.44698 22.6432 5.39969C22.8421 5.35239 23.0492 5.35024 23.2491 5.39339C27.8222 6.36812 32.5907 5.76651 36.7784 3.68647L37.4113 3.37001C37.6025 3.27366 37.8137 3.22347 38.0278 3.22347C38.2419 3.22347 38.453 3.27366 38.6443 3.37001L39.2909 3.69195C43.4761 5.76758 48.24 6.36766 52.8093 5.39476Z" fill="#8835C3"/>
<path d="M38.0291 6.12622L38.0085 6.13718C33.7773 8.24033 29.0101 9.01809 24.3298 8.36879V15.7294C24.3247 20.4324 25.5963 25.0486 28.0089 29.0857C30.4215 33.1227 33.8847 36.4291 38.0291 38.6523C42.1735 36.4291 45.6367 33.1227 48.0493 29.0857C50.4619 25.0486 51.7335 20.4324 51.7283 15.7294V8.37016C47.0509 9.02 42.2862 8.24268 38.0579 6.13992L38.0291 6.12622ZM47.7199 13.4402C47.9768 13.6971 48.121 14.0455 48.121 14.4088C48.121 14.772 47.9768 15.1204 47.7199 15.3773L36.2619 26.8354C36.005 27.0922 35.6566 27.2365 35.2934 27.2365C34.9301 27.2365 34.5817 27.0922 34.3248 26.8354L29.0794 21.5899C28.8298 21.3316 28.6918 20.9855 28.6949 20.6263C28.698 20.2671 28.8421 19.9235 29.0961 19.6695C29.3501 19.4155 29.6937 19.2715 30.0528 19.2683C30.412 19.2652 30.7581 19.4033 31.0164 19.6529L35.2892 23.9298L45.7788 13.4402C46.0357 13.1834 46.384 13.0391 46.7473 13.0391C47.1105 13.0391 47.4589 13.1834 47.7158 13.4402H47.7199Z" fill="#FF4723"/>
</svg>
