<svg width="76" height="74" viewBox="0 0 76 74" fill="none" xmlns="http://www.w3.org/2000/svg">
<path d="M10.7086 30.4882C11.4262 29.5483 12.3437 28.7797 13.3948 28.2377C14.4458 27.6958 15.6041 27.3941 16.7859 27.3545C17.67 26.4146 18.6032 25.5221 19.5817 24.6809C18.6291 23.941 17.9302 22.9231 17.5819 21.7683C17.2335 20.6135 17.253 19.3789 17.6376 18.2356C18.0221 17.0924 18.7527 16.097 19.7282 15.3875C20.7037 14.678 21.8756 14.2894 23.0818 14.2756H26.8262C27.0162 13.787 27.4233 12.7284 27.8169 11.7391L27.5047 4.50816C27.4924 4.27198 27.4186 4.04311 27.2909 3.84409C27.1631 3.64507 26.9857 3.48277 26.7761 3.37318C26.5665 3.2636 26.332 3.21051 26.0957 3.21914C25.8593 3.22778 25.6293 3.29784 25.4283 3.42243L19.7038 7.10032L14.6837 0.53169C14.522 0.320222 14.3015 0.161098 14.0499 0.074197C13.7983 -0.0127037 13.5266 -0.0235261 13.2689 0.0430817C13.0111 0.10969 12.7787 0.250774 12.6007 0.448707C12.4227 0.64664 12.307 0.892644 12.268 1.15598L11.0329 9.43327L2.97552 7.16682C2.72564 7.10337 2.46297 7.1113 2.21739 7.18973C1.9718 7.26816 1.75315 7.41393 1.58631 7.61047C1.41946 7.80701 1.31112 8.04642 1.2736 8.30148C1.23608 8.55654 1.27089 8.81701 1.37407 9.05327L5.11982 17.1663L0.532635 20.6529C0.368681 20.7829 0.236467 20.9485 0.146007 21.1372C0.0555484 21.3259 0.00921722 21.5327 0.010525 21.7419C0.0118327 21.9512 0.0607446 22.1574 0.153555 22.3449C0.246366 22.5324 0.38064 22.6964 0.546207 22.8243L10.7086 30.4882Z" fill="#5819C5"/>
<path d="M75.8288 29.796C75.1285 27.0546 71.129 24.9483 69.575 23.1487H71.8958C72.3079 23.1609 72.7182 23.0903 73.1025 22.9411C73.4868 22.7918 73.8373 22.5669 74.1331 22.2798C74.4289 21.9926 74.664 21.649 74.8246 21.2693C74.9852 20.8896 75.068 20.4815 75.068 20.0693C75.068 19.657 74.9852 19.2489 74.8246 18.8692C74.664 18.4895 74.4289 18.1459 74.1331 17.8588C73.8373 17.5716 73.4868 17.3468 73.1025 17.1975C72.7182 17.0483 72.3079 16.9777 71.8958 16.9899H68.435C67.7609 16.9895 67.0961 17.1476 66.4943 17.4513C65.6135 15.2392 64.5956 12.647 63.8356 10.6805C63.4308 9.70168 62.7437 8.86552 61.8621 8.27846C60.9804 7.69141 59.944 7.38002 58.8847 7.38395H36.0913C30.7902 7.42466 30.3912 13.5509 28.4804 17.45C27.2209 16.7035 24.4713 17.0713 23.0816 16.9885C22.2645 16.9885 21.4809 17.3131 20.9032 17.8909C20.3254 18.4686 20.0009 19.2522 20.0009 20.0693C20.0009 20.8863 20.3254 21.6699 20.9032 22.2477C21.4809 22.8254 22.2645 23.15 23.0816 23.15H25.4023C24.2053 24.2792 22.3352 25.9118 20.6252 27.3409H39.8913C40.9991 27.3356 42.0958 27.561 43.1117 28.0026C44.1276 28.4442 45.0405 29.0924 45.7923 29.9059H61.8963C62.2486 29.9171 62.5828 30.0649 62.8281 30.3181C63.0733 30.5712 63.2105 30.9099 63.2105 31.2624C63.2105 31.6149 63.0733 31.9536 62.8281 32.2068C62.5828 32.46 62.2486 32.6078 61.8963 32.6189H47.4751C47.9773 33.9218 48.5744 35.454 49.158 36.9469H52.901C53.8973 36.9466 54.8767 37.2037 55.7443 37.6933C56.612 38.1829 57.3384 38.8883 57.8533 39.7413H58.084C58.3452 39.7413 58.6008 39.8169 58.8199 39.959C59.0391 40.1011 59.2124 40.3036 59.319 40.542L61.3548 45.1672H70.6065C72.0305 45.1575 73.3932 44.5866 74.3989 43.5784C75.4046 42.5702 75.9721 41.206 75.9781 39.782C75.9808 38.908 76.0813 30.4 75.8288 29.796ZM29.349 22.4565C29.3625 22.4429 33.1897 12.8791 33.6376 11.7255C33.841 11.2428 34.1823 10.8308 34.6188 10.5411C35.0552 10.2514 35.5675 10.0969 36.0913 10.0969H58.8847C59.4041 10.0948 59.9126 10.2455 60.347 10.5303C60.7813 10.815 61.1224 11.2212 61.3276 11.6983C61.7605 12.8248 65.6135 22.4429 65.6271 22.4565H29.349ZM71.2036 32.6189H67.3222C66.9622 32.6189 66.617 32.4759 66.3625 32.2214C66.108 31.9669 65.965 31.6217 65.965 31.2617C65.965 30.9018 66.108 30.5566 66.3625 30.3021C66.617 30.0476 66.9622 29.9046 67.3222 29.9046H71.2036C71.5636 29.9046 71.9088 30.0476 72.1633 30.3021C72.4178 30.5566 72.5608 30.9018 72.5608 31.2617C72.5608 31.6217 72.4178 31.9669 72.1633 32.2214C71.9088 32.4759 71.5636 32.6189 71.2036 32.6189ZM63.5656 47.8842C63.5788 48.7675 63.9391 49.6101 64.5687 50.2298C65.1983 50.8495 66.0465 51.1965 66.9299 51.1956H71.6108C72.0527 51.1956 72.4903 51.1086 72.8986 50.9394C73.3069 50.7703 73.6778 50.5223 73.9902 50.2098C74.3027 49.8972 74.5505 49.5262 74.7195 49.1178C74.8885 48.7095 74.9753 48.2718 74.9752 47.8299V46.5949C72.2242 48.6008 67.1674 47.6983 63.5656 47.8842ZM18.9165 65.1214L17.6272 67.8344H39.4028L38.2085 65.1214H18.9165Z" fill="#FF4723"/>
<path d="M50.5816 45.8155H52.9023C53.708 45.7986 54.475 45.4667 55.0388 44.8909C55.6026 44.3151 55.9184 43.5413 55.9184 42.7354C55.9184 41.9296 55.6026 41.1558 55.0388 40.58C54.475 40.0042 53.708 39.6723 52.9023 39.6554C51.4977 39.7259 48.7331 39.3839 47.5008 40.1168C45.5845 36.2191 45.2208 30.0983 39.8913 30.0508H17.0978C11.7954 30.0915 11.3978 36.2177 9.4869 40.1168C8.24511 39.3717 5.4643 39.7368 4.08814 39.6554C3.28245 39.6723 2.51546 40.0042 1.95164 40.58C1.38782 41.1558 1.07205 41.9296 1.07205 42.7354C1.07205 43.5413 1.38782 44.3151 1.95164 44.8909C2.51546 45.4667 3.28245 45.7986 4.08814 45.8155H6.40752C4.62829 47.9055 -0.166544 50.1625 0.00445802 53.725V62.4488C0.00854836 63.5849 0.369473 64.6909 1.03625 65.6107C1.70302 66.5305 2.64193 67.2175 3.72035 67.5748C4.56993 68.0444 13.4919 67.7648 14.6142 67.8326L16.8264 63.1803C16.9367 62.9499 17.1096 62.7551 17.3254 62.6183C17.5411 62.4815 17.791 62.4082 18.0465 62.4067H39.0892C39.3504 62.4068 39.6059 62.4824 39.8251 62.6245C40.0442 62.7666 40.2176 62.969 40.3242 63.2075L42.3586 67.8326H51.6117C53.0356 67.8227 54.3981 67.2517 55.4037 66.2435C56.4093 65.2354 56.9769 63.8714 56.9833 62.4474C56.9982 61.5789 57.0783 53.0614 56.834 52.4615C56.1337 49.72 52.1328 47.6137 50.5802 45.8141L50.5816 45.8155ZM8.67261 55.2857H4.77893C4.41899 55.2857 4.07379 55.1428 3.81928 54.8882C3.56476 54.6337 3.42178 54.2885 3.42178 53.9286C3.42178 53.5686 3.56476 53.2234 3.81928 52.9689C4.07379 52.7144 4.41899 52.5714 4.77893 52.5714H8.67397C9.03391 52.5714 9.37911 52.7144 9.63362 52.9689C9.88814 53.2234 10.0311 53.5686 10.0311 53.9286C10.0311 54.2885 9.88814 54.6337 9.63362 54.8882C9.37911 55.1428 9.03391 55.2857 8.67397 55.2857H8.67261ZM42.9028 55.2857H14.0999C13.7399 55.2857 13.3947 55.1428 13.1402 54.8882C12.8857 54.6337 12.7427 54.2885 12.7427 53.9286C12.7427 53.5686 12.8857 53.2234 13.1402 52.9689C13.3947 52.7144 13.7399 52.5714 14.0999 52.5714H42.9028C43.2627 52.5714 43.6079 52.7144 43.8624 52.9689C44.117 53.2234 44.2599 53.5686 44.2599 53.9286C44.2599 54.2885 44.117 54.6337 43.8624 54.8882C43.6079 55.1428 43.2627 55.2857 42.9028 55.2857ZM10.3555 45.1234C10.3691 45.1098 14.1949 35.5459 14.6427 34.3923C14.8465 33.9093 15.1883 33.4971 15.6252 33.2074C16.0622 32.9177 16.5749 32.7634 17.0992 32.7637H39.8913C40.4104 32.7619 40.9186 32.9128 41.3527 33.1975C41.7868 33.4822 42.1276 33.8883 42.3328 34.3652C42.7671 35.4916 46.62 45.1098 46.6336 45.1234H10.3555ZM52.2102 55.2857H48.3287C47.9688 55.2857 47.6236 55.1428 47.369 54.8882C47.1145 54.6337 46.9715 54.2885 46.9715 53.9286C46.9715 53.5686 47.1145 53.2234 47.369 52.9689C47.6236 52.7144 47.9688 52.5714 48.3287 52.5714H52.2102C52.5701 52.5714 52.9153 52.7144 53.1698 52.9689C53.4243 53.2234 53.5673 53.5686 53.5673 53.9286C53.5673 54.2885 53.4243 54.6337 53.1698 54.8882C52.9153 55.1428 52.5701 55.2857 52.2102 55.2857ZM2.91963 70.167C2.24935 69.939 1.60767 69.6344 1.0074 69.259V70.494C1.0074 70.936 1.09446 71.3736 1.26362 71.7818C1.43279 72.1901 1.68073 72.5611 1.99328 72.8735C2.30584 73.1859 2.67689 73.4337 3.08523 73.6027C3.49357 73.7717 3.93121 73.8586 4.37314 73.8584H9.05261C9.93626 73.8596 10.7848 73.5128 11.4147 72.8931C12.0446 72.2733 12.4052 71.4305 12.4184 70.547C10.5496 70.4479 4.63372 70.8469 2.91963 70.167ZM44.5707 70.547C44.5839 71.4305 44.9445 72.2733 45.5744 72.8931C46.2043 73.5128 47.0528 73.8596 47.9365 73.8584H52.616C53.058 73.8586 53.4957 73.7717 53.9042 73.6026C54.3126 73.4335 54.6837 73.1856 54.9963 72.873C55.3089 72.5604 55.5568 72.1893 55.7259 71.7809C55.8949 71.3725 55.9819 70.9347 55.9817 70.4927V69.259C53.2307 71.2649 48.174 70.3597 44.5707 70.547Z" fill="#8835C3"/>
</svg>
