<svg width="85" height="85" viewBox="0 0 85 85" fill="none" xmlns="http://www.w3.org/2000/svg">
<circle cx="42.5" cy="42.5" r="42.5" fill="#8835C3"/>
<path fill-rule="evenodd" clip-rule="evenodd" d="M39.9096 25.866C40.1841 25.5915 40.51 25.3737 40.8686 25.2251C41.2273 25.0765 41.6118 25 42 25C42.3882 25 42.7727 25.0765 43.1314 25.2251C43.49 25.3737 43.8159 25.5915 44.0904 25.866L46.4726 28.2482C46.5814 28.357 46.7364 28.4082 46.8897 28.3834L50.2166 27.8575C50.9908 27.735 51.7821 27.925 52.4164 28.3856C53.0507 28.8462 53.4763 29.5398 53.5995 30.3139L54.1254 33.6408C54.1375 33.7163 54.1672 33.7879 54.2122 33.8498C54.2572 33.9117 54.3161 33.962 54.3842 33.9969L57.3846 35.5251C58.0828 35.8815 58.611 36.5005 58.8534 37.246C59.0957 37.9915 59.0323 38.8027 58.6771 39.5015L57.1489 42.5036C57.1139 42.5714 57.0956 42.6466 57.0956 42.7228C57.0956 42.7991 57.1139 42.8743 57.1489 42.9421L58.6771 45.9442C58.8536 46.2901 58.9603 46.6674 58.9908 47.0545C59.0214 47.4417 58.9754 47.831 58.8553 48.2004C58.7353 48.5697 58.5436 48.9117 58.2912 49.2069C58.0389 49.5021 57.7308 49.7446 57.3846 49.9206L54.3842 51.4488C54.3161 51.4836 54.2572 51.534 54.2122 51.5959C54.1672 51.6578 54.1375 51.7294 54.1254 51.8049L53.5995 55.1318C53.4763 55.9059 53.0507 56.5995 52.4164 57.0601C51.7821 57.5207 50.9908 57.7106 50.2166 57.5882L46.8897 57.0623C46.8145 57.0502 46.7374 57.0561 46.6649 57.0796C46.5924 57.1031 46.5265 57.1435 46.4726 57.1974L44.0904 59.5797C43.8159 59.8542 43.49 60.072 43.1314 60.2206C42.7727 60.3692 42.3882 60.4457 42 60.4457C41.6118 60.4457 41.2273 60.3692 40.8686 60.2206C40.51 60.072 40.1841 59.8542 39.9096 59.5797L37.5274 57.1974C37.4735 57.1435 37.4076 57.1031 37.3351 57.0796C37.2626 57.0561 37.1855 57.0502 37.1103 57.0623L33.7834 57.5882C33.0092 57.7106 32.2179 57.5207 31.5836 57.0601C30.9493 56.5995 30.5237 55.9059 30.4005 55.1318L29.8746 51.8049C29.8625 51.7294 29.8328 51.6578 29.7878 51.5959C29.7428 51.534 29.6839 51.4836 29.6158 51.4488L26.6154 49.9206C25.9172 49.5641 25.389 48.9452 25.1466 48.1997C24.9043 47.4542 24.9677 46.643 25.3229 45.9442L26.8511 42.9421C26.8861 42.8743 26.9044 42.7991 26.9044 42.7228C26.9044 42.6466 26.8861 42.5714 26.8511 42.5036L25.3229 39.5015C25.1463 39.1556 25.0397 38.7783 25.0092 38.3912C24.9786 38.004 25.0246 37.6147 25.1447 37.2453C25.2647 36.876 25.4564 36.534 25.7088 36.2388C25.9611 35.9436 26.2692 35.7011 26.6154 35.5251L29.6158 33.9969C29.6839 33.962 29.7428 33.9117 29.7878 33.8498C29.8328 33.7879 29.8625 33.7163 29.8746 33.6408L30.4005 30.3139C30.5237 29.5398 30.9493 28.8462 31.5836 28.3856C32.2179 27.925 33.0092 27.735 33.7834 27.8575L37.1103 28.3834C37.1855 28.3955 37.2626 28.3896 37.3351 28.3661C37.4076 28.3426 37.4735 28.3022 37.5274 28.2482L39.9096 25.866ZM35.3562 43.5966L39.2023 47.4444C39.3172 47.5593 39.4535 47.6504 39.6036 47.7126C39.7536 47.7748 39.9145 47.8068 40.0769 47.8068C40.2394 47.8068 40.4002 47.7748 40.5503 47.7126C40.7003 47.6504 40.8367 47.5593 40.9515 47.4444L48.6438 39.7504C48.8692 39.5173 48.9939 39.2051 48.9913 38.8809C48.9886 38.5567 48.8587 38.2465 48.6296 38.0172C48.4004 37.7878 48.0904 37.6576 47.7662 37.6547C47.442 37.6517 47.1296 37.7762 46.8963 38.0013L40.0761 44.8215L37.1037 41.8491C36.9889 41.7343 36.8527 41.6433 36.7028 41.5812C36.5529 41.5191 36.3922 41.4872 36.2299 41.4872C36.0677 41.4872 35.907 41.5191 35.7571 41.5812C35.6072 41.6433 35.4709 41.7343 35.3562 41.8491C35.2414 41.9638 35.1504 42.1001 35.0883 42.25C35.0262 42.3999 34.9943 42.5606 34.9943 42.7228C34.9943 42.8851 35.0262 43.0458 35.0883 43.1957C35.1504 43.3456 35.2414 43.4819 35.3562 43.5966Z" fill="white"/>
</svg>
